<svg width="2447" height="146" viewBox="0 0 2447 146" fill="none" xmlns="http://www.w3.org/2000/svg">
<g filter="url(#filter0_d_1431_1524)">
<rect x="5" y="10" width="402" height="126" rx="2" fill="#D7EEEB"/>
<path d="M64.7278 83.71C62.7878 83.71 60.9978 83.26 59.3578 82.36C57.7378 81.44 56.4478 80.17 55.4878 78.55C54.5478 76.91 54.0778 75.07 54.0778 73.03C54.0778 70.99 54.5478 69.16 55.4878 67.54C56.4478 65.92 57.7378 64.66 59.3578 63.76C60.9978 62.84 62.7878 62.38 64.7278 62.38C66.6878 62.38 68.4778 62.84 70.0978 63.76C71.7378 64.66 73.0278 65.92 73.9678 67.54C74.9078 69.16 75.3778 70.99 75.3778 73.03C75.3778 75.07 74.9078 76.91 73.9678 78.55C73.0278 80.17 71.7378 81.44 70.0978 82.36C68.4778 83.26 66.6878 83.71 64.7278 83.71ZM64.7278 80.74C66.1078 80.74 67.3378 80.43 68.4178 79.81C69.4978 79.17 70.3378 78.27 70.9378 77.11C71.5578 75.93 71.8678 74.57 71.8678 73.03C71.8678 71.49 71.5578 70.14 70.9378 68.98C70.3378 67.82 69.4978 66.93 68.4178 66.31C67.3378 65.69 66.1078 65.38 64.7278 65.38C63.3478 65.38 62.1178 65.69 61.0378 66.31C59.9578 66.93 59.1078 67.82 58.4878 68.98C57.8878 70.14 57.5878 71.49 57.5878 73.03C57.5878 74.57 57.8878 75.93 58.4878 77.11C59.1078 78.27 59.9578 79.17 61.0378 79.81C62.1178 80.43 63.3478 80.74 64.7278 80.74ZM87.0832 66.7C88.3832 66.7 89.5432 66.97 90.5632 67.51C91.6032 68.05 92.4132 68.85 92.9932 69.91C93.5732 70.97 93.8632 72.25 93.8632 73.75V83.5H90.4732V74.26C90.4732 72.78 90.1032 71.65 89.3632 70.87C88.6232 70.07 87.6132 69.67 86.3332 69.67C85.0532 69.67 84.0332 70.07 83.2732 70.87C82.5332 71.65 82.1632 72.78 82.1632 74.26V83.5H78.7432V66.97H82.1632V68.86C82.7232 68.18 83.4332 67.65 84.2932 67.27C85.1732 66.89 86.1032 66.7 87.0832 66.7ZM113.376 74.83C113.376 75.45 113.336 76.01 113.256 76.51H100.626C100.726 77.83 101.216 78.89 102.096 79.69C102.976 80.49 104.056 80.89 105.336 80.89C107.176 80.89 108.476 80.12 109.236 78.58H112.926C112.426 80.1 111.516 81.35 110.196 82.33C108.896 83.29 107.276 83.77 105.336 83.77C103.756 83.77 102.336 83.42 101.076 82.72C99.8356 82 98.8556 81 98.1356 79.72C97.4356 78.42 97.0856 76.92 97.0856 75.22C97.0856 73.52 97.4256 72.03 98.1056 70.75C98.8056 69.45 99.7756 68.45 101.016 67.75C102.276 67.05 103.716 66.7 105.336 66.7C106.896 66.7 108.286 67.04 109.506 67.72C110.726 68.4 111.676 69.36 112.356 70.6C113.036 71.82 113.376 73.23 113.376 74.83ZM109.806 73.75C109.786 72.49 109.336 71.48 108.456 70.72C107.576 69.96 106.486 69.58 105.186 69.58C104.006 69.58 102.996 69.96 102.156 70.72C101.316 71.46 100.816 72.47 100.656 73.75H109.806ZM129.431 71.2V74.08H117.101V71.2H129.431ZM133.15 73.03C133.15 70.99 133.62 69.16 134.56 67.54C135.52 65.92 136.81 64.66 138.43 63.76C140.07 62.84 141.86 62.38 143.8 62.38C146.02 62.38 147.99 62.93 149.71 64.03C151.45 65.11 152.71 66.65 153.49 68.65H149.38C148.84 67.55 148.09 66.73 147.13 66.19C146.17 65.65 145.06 65.38 143.8 65.38C142.42 65.38 141.19 65.69 140.11 66.31C139.03 66.93 138.18 67.82 137.56 68.98C136.96 70.14 136.66 71.49 136.66 73.03C136.66 74.57 136.96 75.92 137.56 77.08C138.18 78.24 139.03 79.14 140.11 79.78C141.19 80.4 142.42 80.71 143.8 80.71C145.06 80.71 146.17 80.44 147.13 79.9C148.09 79.36 148.84 78.54 149.38 77.44H153.49C152.71 79.44 151.45 80.98 149.71 82.06C147.99 83.14 146.02 83.68 143.8 83.68C141.84 83.68 140.05 83.23 138.43 82.33C136.81 81.41 135.52 80.14 134.56 78.52C133.62 76.9 133.15 75.07 133.15 73.03ZM160.913 61.3V83.5H157.493V61.3H160.913ZM167.143 64.78C166.523 64.78 166.003 64.57 165.583 64.15C165.163 63.73 164.953 63.21 164.953 62.59C164.953 61.97 165.163 61.45 165.583 61.03C166.003 60.61 166.523 60.4 167.143 60.4C167.743 60.4 168.253 60.61 168.673 61.03C169.093 61.45 169.303 61.97 169.303 62.59C169.303 63.21 169.093 63.73 168.673 64.15C168.253 64.57 167.743 64.78 167.143 64.78ZM168.823 66.97V83.5H165.403V66.97H168.823ZM172.173 75.22C172.173 73.52 172.513 72.03 173.193 70.75C173.893 69.45 174.853 68.45 176.073 67.75C177.293 67.05 178.693 66.7 180.273 66.7C182.273 66.7 183.923 67.18 185.223 68.14C186.543 69.08 187.433 70.43 187.893 72.19H184.203C183.903 71.37 183.423 70.73 182.763 70.27C182.103 69.81 181.273 69.58 180.273 69.58C178.873 69.58 177.753 70.08 176.913 71.08C176.093 72.06 175.683 73.44 175.683 75.22C175.683 77 176.093 78.39 176.913 79.39C177.753 80.39 178.873 80.89 180.273 80.89C182.253 80.89 183.563 80.02 184.203 78.28H187.893C187.413 79.96 186.513 81.3 185.193 82.3C183.873 83.28 182.233 83.77 180.273 83.77C178.693 83.77 177.293 83.42 176.073 82.72C174.853 82 173.893 81 173.193 79.72C172.513 78.42 172.173 76.92 172.173 75.22ZM197.842 75.25L205.462 83.5H200.842L194.722 76.39V83.5H191.302V61.3H194.722V74.2L200.722 66.97H205.462L197.842 75.25ZM214.566 73.03C214.566 70.99 215.036 69.16 215.976 67.54C216.936 65.92 218.226 64.66 219.846 63.76C221.486 62.84 223.276 62.38 225.216 62.38C227.436 62.38 229.406 62.93 231.126 64.03C232.866 65.11 234.126 66.65 234.906 68.65H230.796C230.256 67.55 229.506 66.73 228.546 66.19C227.586 65.65 226.476 65.38 225.216 65.38C223.836 65.38 222.606 65.69 221.526 66.31C220.446 66.93 219.596 67.82 218.976 68.98C218.376 70.14 218.076 71.49 218.076 73.03C218.076 74.57 218.376 75.92 218.976 77.08C219.596 78.24 220.446 79.14 221.526 79.78C222.606 80.4 223.836 80.71 225.216 80.71C226.476 80.71 227.586 80.44 228.546 79.9C229.506 79.36 230.256 78.54 230.796 77.44H234.906C234.126 79.44 232.866 80.98 231.126 82.06C229.406 83.14 227.436 83.68 225.216 83.68C223.256 83.68 221.466 83.23 219.846 82.33C218.226 81.41 216.936 80.14 215.976 78.52C215.036 76.9 214.566 75.07 214.566 73.03ZM247.459 66.7C248.719 66.7 249.839 66.97 250.819 67.51C251.819 68.05 252.599 68.85 253.159 69.91C253.739 70.97 254.029 72.25 254.029 73.75V83.5H250.639V74.26C250.639 72.78 250.269 71.65 249.529 70.87C248.789 70.07 247.779 69.67 246.499 69.67C245.219 69.67 244.199 70.07 243.439 70.87C242.699 71.65 242.329 72.78 242.329 74.26V83.5H238.909V61.3H242.329V68.89C242.909 68.19 243.639 67.65 244.519 67.27C245.419 66.89 246.399 66.7 247.459 66.7ZM273.542 74.83C273.542 75.45 273.502 76.01 273.422 76.51H260.792C260.892 77.83 261.382 78.89 262.262 79.69C263.142 80.49 264.222 80.89 265.502 80.89C267.342 80.89 268.642 80.12 269.402 78.58H273.092C272.592 80.1 271.682 81.35 270.362 82.33C269.062 83.29 267.442 83.77 265.502 83.77C263.922 83.77 262.502 83.42 261.242 82.72C260.002 82 259.022 81 258.302 79.72C257.602 78.42 257.252 76.92 257.252 75.22C257.252 73.52 257.592 72.03 258.272 70.75C258.972 69.45 259.942 68.45 261.182 67.75C262.442 67.05 263.882 66.7 265.502 66.7C267.062 66.7 268.452 67.04 269.672 67.72C270.892 68.4 271.842 69.36 272.522 70.6C273.202 71.82 273.542 73.23 273.542 74.83ZM269.972 73.75C269.952 72.49 269.502 71.48 268.622 70.72C267.742 69.96 266.652 69.58 265.352 69.58C264.172 69.58 263.162 69.96 262.322 70.72C261.482 71.46 260.982 72.47 260.822 73.75H269.972ZM275.767 75.22C275.767 73.52 276.107 72.03 276.787 70.75C277.487 69.45 278.447 68.45 279.667 67.75C280.887 67.05 282.287 66.7 283.867 66.7C285.867 66.7 287.517 67.18 288.817 68.14C290.137 69.08 291.027 70.43 291.487 72.19H287.797C287.497 71.37 287.017 70.73 286.357 70.27C285.697 69.81 284.867 69.58 283.867 69.58C282.467 69.58 281.347 70.08 280.507 71.08C279.687 72.06 279.277 73.44 279.277 75.22C279.277 77 279.687 78.39 280.507 79.39C281.347 80.39 282.467 80.89 283.867 80.89C285.847 80.89 287.157 80.02 287.797 78.28H291.487C291.007 79.96 290.107 81.3 288.787 82.3C287.467 83.28 285.827 83.77 283.867 83.77C282.287 83.77 280.887 83.42 279.667 82.72C278.447 82 277.487 81 276.787 79.72C276.107 78.42 275.767 76.92 275.767 75.22ZM301.436 75.25L309.056 83.5H304.436L298.316 76.39V83.5H294.896V61.3H298.316V74.2L304.316 66.97H309.056L301.436 75.25ZM318.677 83.77C317.117 83.77 315.707 83.42 314.447 82.72C313.187 82 312.197 81 311.477 79.72C310.757 78.42 310.397 76.92 310.397 75.22C310.397 73.54 310.767 72.05 311.507 70.75C312.247 69.45 313.257 68.45 314.537 67.75C315.817 67.05 317.247 66.7 318.827 66.7C320.407 66.7 321.837 67.05 323.117 67.75C324.397 68.45 325.407 69.45 326.147 70.75C326.887 72.05 327.257 73.54 327.257 75.22C327.257 76.9 326.877 78.39 326.117 79.69C325.357 80.99 324.317 82 322.997 82.72C321.697 83.42 320.257 83.77 318.677 83.77ZM318.677 80.8C319.557 80.8 320.377 80.59 321.137 80.17C321.917 79.75 322.547 79.12 323.027 78.28C323.507 77.44 323.747 76.42 323.747 75.22C323.747 74.02 323.517 73.01 323.057 72.19C322.597 71.35 321.987 70.72 321.227 70.3C320.467 69.88 319.647 69.67 318.767 69.67C317.887 69.67 317.067 69.88 316.307 70.3C315.567 70.72 314.977 71.35 314.537 72.19C314.097 73.01 313.877 74.02 313.877 75.22C313.877 77 314.327 78.38 315.227 79.36C316.147 80.32 317.297 80.8 318.677 80.8ZM345.608 66.97V83.5H342.188V81.55C341.648 82.23 340.938 82.77 340.058 83.17C339.198 83.55 338.278 83.74 337.298 83.74C335.998 83.74 334.828 83.47 333.788 82.93C332.768 82.39 331.958 81.59 331.358 80.53C330.778 79.47 330.488 78.19 330.488 76.69V66.97H333.878V76.18C333.878 77.66 334.248 78.8 334.988 79.6C335.728 80.38 336.738 80.77 338.018 80.77C339.298 80.77 340.308 80.38 341.048 79.6C341.808 78.8 342.188 77.66 342.188 76.18V66.97H345.608ZM354.11 69.76V78.91C354.11 79.53 354.25 79.98 354.53 80.26C354.83 80.52 355.33 80.65 356.03 80.65H358.13V83.5H355.43C353.89 83.5 352.71 83.14 351.89 82.42C351.07 81.7 350.66 80.53 350.66 78.91V69.76H348.71V66.97H350.66V62.86H354.11V66.97H358.13V69.76H354.11Z" fill="#262E3A"/>
</g>
<g filter="url(#filter1_d_1431_1524)">
<rect x="412" y="10" width="402" height="126" rx="2" fill="#F1DCDE"/>
<path d="M509.461 68.65C508.921 67.61 508.171 66.83 507.211 66.31C506.251 65.77 505.141 65.5 503.881 65.5C502.501 65.5 501.271 65.81 500.191 66.43C499.111 67.05 498.261 67.93 497.641 69.07C497.041 70.21 496.741 71.53 496.741 73.03C496.741 74.53 497.041 75.86 497.641 77.02C498.261 78.16 499.111 79.04 500.191 79.66C501.271 80.28 502.501 80.59 503.881 80.59C505.741 80.59 507.251 80.07 508.411 79.03C509.571 77.99 510.281 76.58 510.541 74.8H502.711V72.07H514.201V74.74C513.981 76.36 513.401 77.85 512.461 79.21C511.541 80.57 510.331 81.66 508.831 82.48C507.351 83.28 505.701 83.68 503.881 83.68C501.921 83.68 500.131 83.23 498.511 82.33C496.891 81.41 495.601 80.14 494.641 78.52C493.701 76.9 493.231 75.07 493.231 73.03C493.231 70.99 493.701 69.16 494.641 67.54C495.601 65.92 496.891 64.66 498.511 63.76C500.151 62.84 501.941 62.38 503.881 62.38C506.101 62.38 508.071 62.93 509.791 64.03C511.531 65.11 512.791 66.65 513.571 68.65H509.461ZM532.544 66.97V83.5H529.124V81.55C528.584 82.23 527.874 82.77 526.994 83.17C526.134 83.55 525.214 83.74 524.234 83.74C522.934 83.74 521.764 83.47 520.724 82.93C519.704 82.39 518.894 81.59 518.294 80.53C517.714 79.47 517.424 78.19 517.424 76.69V66.97H520.814V76.18C520.814 77.66 521.184 78.8 521.924 79.6C522.664 80.38 523.674 80.77 524.954 80.77C526.234 80.77 527.244 80.38 527.984 79.6C528.744 78.8 529.124 77.66 529.124 76.18V66.97H532.544ZM552.207 74.83C552.207 75.45 552.167 76.01 552.087 76.51H539.457C539.557 77.83 540.047 78.89 540.927 79.69C541.807 80.49 542.887 80.89 544.167 80.89C546.007 80.89 547.307 80.12 548.067 78.58H551.757C551.257 80.1 550.347 81.35 549.027 82.33C547.727 83.29 546.107 83.77 544.167 83.77C542.587 83.77 541.167 83.42 539.907 82.72C538.667 82 537.687 81 536.967 79.72C536.267 78.42 535.917 76.92 535.917 75.22C535.917 73.52 536.257 72.03 536.937 70.75C537.637 69.45 538.607 68.45 539.847 67.75C541.107 67.05 542.547 66.7 544.167 66.7C545.727 66.7 547.117 67.04 548.337 67.72C549.557 68.4 550.507 69.36 551.187 70.6C551.867 71.82 552.207 73.23 552.207 74.83ZM548.637 73.75C548.617 72.49 548.167 71.48 547.287 70.72C546.407 69.96 545.317 69.58 544.017 69.58C542.837 69.58 541.827 69.96 540.987 70.72C540.147 71.46 539.647 72.47 539.487 73.75H548.637ZM561.572 83.77C560.272 83.77 559.102 83.54 558.062 83.08C557.042 82.6 556.232 81.96 555.632 81.16C555.032 80.34 554.712 79.43 554.672 78.43H558.212C558.272 79.13 558.602 79.72 559.202 80.2C559.822 80.66 560.592 80.89 561.512 80.89C562.472 80.89 563.212 80.71 563.732 80.35C564.272 79.97 564.542 79.49 564.542 78.91C564.542 78.29 564.242 77.83 563.642 77.53C563.062 77.23 562.132 76.9 560.852 76.54C559.612 76.2 558.602 75.87 557.822 75.55C557.042 75.23 556.362 74.74 555.782 74.08C555.222 73.42 554.942 72.55 554.942 71.47C554.942 70.59 555.202 69.79 555.722 69.07C556.242 68.33 556.982 67.75 557.942 67.33C558.922 66.91 560.042 66.7 561.302 66.7C563.182 66.7 564.692 67.18 565.832 68.14C566.992 69.08 567.612 70.37 567.692 72.01H564.272C564.212 71.27 563.912 70.68 563.372 70.24C562.832 69.8 562.102 69.58 561.182 69.58C560.282 69.58 559.592 69.75 559.112 70.09C558.632 70.43 558.392 70.88 558.392 71.44C558.392 71.88 558.552 72.25 558.872 72.55C559.192 72.85 559.582 73.09 560.042 73.27C560.502 73.43 561.182 73.64 562.082 73.9C563.282 74.22 564.262 74.55 565.022 74.89C565.802 75.21 566.472 75.69 567.032 76.33C567.592 76.97 567.882 77.82 567.902 78.88C567.902 79.82 567.642 80.66 567.122 81.4C566.602 82.14 565.862 82.72 564.902 83.14C563.962 83.56 562.852 83.77 561.572 83.77ZM575.588 69.76V78.91C575.588 79.53 575.728 79.98 576.008 80.26C576.308 80.52 576.808 80.65 577.508 80.65H579.608V83.5H576.908C575.368 83.5 574.188 83.14 573.368 82.42C572.548 81.7 572.138 80.53 572.138 78.91V69.76H570.188V66.97H572.138V62.86H575.588V66.97H579.608V69.76H575.588ZM589.413 73.03C589.413 70.99 589.883 69.16 590.823 67.54C591.783 65.92 593.073 64.66 594.693 63.76C596.333 62.84 598.123 62.38 600.063 62.38C602.283 62.38 604.253 62.93 605.973 64.03C607.713 65.11 608.973 66.65 609.753 68.65H605.643C605.103 67.55 604.353 66.73 603.393 66.19C602.433 65.65 601.323 65.38 600.063 65.38C598.683 65.38 597.453 65.69 596.373 66.31C595.293 66.93 594.443 67.82 593.823 68.98C593.223 70.14 592.923 71.49 592.923 73.03C592.923 74.57 593.223 75.92 593.823 77.08C594.443 78.24 595.293 79.14 596.373 79.78C597.453 80.4 598.683 80.71 600.063 80.71C601.323 80.71 602.433 80.44 603.393 79.9C604.353 79.36 605.103 78.54 605.643 77.44H609.753C608.973 79.44 607.713 80.98 605.973 82.06C604.253 83.14 602.283 83.68 600.063 83.68C598.103 83.68 596.313 83.23 594.693 82.33C593.073 81.41 591.783 80.14 590.823 78.52C589.883 76.9 589.413 75.07 589.413 73.03ZM622.306 66.7C623.566 66.7 624.686 66.97 625.666 67.51C626.666 68.05 627.446 68.85 628.006 69.91C628.586 70.97 628.876 72.25 628.876 73.75V83.5H625.486V74.26C625.486 72.78 625.116 71.65 624.376 70.87C623.636 70.07 622.626 69.67 621.346 69.67C620.066 69.67 619.046 70.07 618.286 70.87C617.546 71.65 617.176 72.78 617.176 74.26V83.5H613.756V61.3H617.176V68.89C617.756 68.19 618.486 67.65 619.366 67.27C620.266 66.89 621.246 66.7 622.306 66.7ZM648.388 74.83C648.388 75.45 648.348 76.01 648.268 76.51H635.638C635.738 77.83 636.228 78.89 637.108 79.69C637.988 80.49 639.068 80.89 640.348 80.89C642.188 80.89 643.488 80.12 644.248 78.58H647.938C647.438 80.1 646.528 81.35 645.208 82.33C643.908 83.29 642.288 83.77 640.348 83.77C638.768 83.77 637.348 83.42 636.088 82.72C634.848 82 633.868 81 633.148 79.72C632.448 78.42 632.098 76.92 632.098 75.22C632.098 73.52 632.438 72.03 633.118 70.75C633.818 69.45 634.788 68.45 636.028 67.75C637.288 67.05 638.728 66.7 640.348 66.7C641.908 66.7 643.298 67.04 644.518 67.72C645.738 68.4 646.688 69.36 647.368 70.6C648.048 71.82 648.388 73.23 648.388 74.83ZM644.818 73.75C644.798 72.49 644.348 71.48 643.468 70.72C642.588 69.96 641.498 69.58 640.198 69.58C639.018 69.58 638.008 69.96 637.168 70.72C636.328 71.46 635.828 72.47 635.668 73.75H644.818ZM650.614 75.22C650.614 73.52 650.954 72.03 651.634 70.75C652.334 69.45 653.294 68.45 654.514 67.75C655.734 67.05 657.134 66.7 658.714 66.7C660.714 66.7 662.364 67.18 663.664 68.14C664.984 69.08 665.874 70.43 666.334 72.19H662.644C662.344 71.37 661.864 70.73 661.204 70.27C660.544 69.81 659.714 69.58 658.714 69.58C657.314 69.58 656.194 70.08 655.354 71.08C654.534 72.06 654.124 73.44 654.124 75.22C654.124 77 654.534 78.39 655.354 79.39C656.194 80.39 657.314 80.89 658.714 80.89C660.694 80.89 662.004 80.02 662.644 78.28H666.334C665.854 79.96 664.954 81.3 663.634 82.3C662.314 83.28 660.674 83.77 658.714 83.77C657.134 83.77 655.734 83.42 654.514 82.72C653.294 82 652.334 81 651.634 79.72C650.954 78.42 650.614 76.92 650.614 75.22ZM676.282 75.25L683.902 83.5H679.282L673.162 76.39V83.5H669.742V61.3H673.162V74.2L679.162 66.97H683.902L676.282 75.25ZM693.524 83.77C691.964 83.77 690.554 83.42 689.294 82.72C688.034 82 687.044 81 686.324 79.72C685.604 78.42 685.244 76.92 685.244 75.22C685.244 73.54 685.614 72.05 686.354 70.75C687.094 69.45 688.104 68.45 689.384 67.75C690.664 67.05 692.094 66.7 693.674 66.7C695.254 66.7 696.684 67.05 697.964 67.75C699.244 68.45 700.254 69.45 700.994 70.75C701.734 72.05 702.104 73.54 702.104 75.22C702.104 76.9 701.724 78.39 700.964 79.69C700.204 80.99 699.164 82 697.844 82.72C696.544 83.42 695.104 83.77 693.524 83.77ZM693.524 80.8C694.404 80.8 695.224 80.59 695.984 80.17C696.764 79.75 697.394 79.12 697.874 78.28C698.354 77.44 698.594 76.42 698.594 75.22C698.594 74.02 698.364 73.01 697.904 72.19C697.444 71.35 696.834 70.72 696.074 70.3C695.314 69.88 694.494 69.67 693.614 69.67C692.734 69.67 691.914 69.88 691.154 70.3C690.414 70.72 689.824 71.35 689.384 72.19C688.944 73.01 688.724 74.02 688.724 75.22C688.724 77 689.174 78.38 690.074 79.36C690.994 80.32 692.144 80.8 693.524 80.8ZM720.454 66.97V83.5H717.034V81.55C716.494 82.23 715.784 82.77 714.904 83.17C714.044 83.55 713.124 83.74 712.144 83.74C710.844 83.74 709.674 83.47 708.634 82.93C707.614 82.39 706.804 81.59 706.204 80.53C705.624 79.47 705.334 78.19 705.334 76.69V66.97H708.724V76.18C708.724 77.66 709.094 78.8 709.834 79.6C710.574 80.38 711.584 80.77 712.864 80.77C714.144 80.77 715.154 80.38 715.894 79.6C716.654 78.8 717.034 77.66 717.034 76.18V66.97H720.454ZM728.957 69.76V78.91C728.957 79.53 729.097 79.98 729.377 80.26C729.677 80.52 730.177 80.65 730.877 80.65H732.977V83.5H730.277C728.737 83.5 727.557 83.14 726.737 82.42C725.917 81.7 725.507 80.53 725.507 78.91V69.76H723.557V66.97H725.507V62.86H728.957V66.97H732.977V69.76H728.957Z" fill="#262E3A"/>
</g>
<g filter="url(#filter2_d_1431_1524)">
<rect x="819" y="10" width="402" height="126" rx="2" fill="#FCF4D7"/>
<path d="M868.898 50.53C868.898 48.49 869.368 46.66 870.308 45.04C871.268 43.42 872.558 42.16 874.178 41.26C875.818 40.34 877.608 39.88 879.548 39.88C881.768 39.88 883.738 40.43 885.458 41.53C887.198 42.61 888.458 44.15 889.238 46.15H885.128C884.588 45.05 883.838 44.23 882.878 43.69C881.918 43.15 880.808 42.88 879.548 42.88C878.168 42.88 876.938 43.19 875.858 43.81C874.778 44.43 873.928 45.32 873.308 46.48C872.708 47.64 872.408 48.99 872.408 50.53C872.408 52.07 872.708 53.42 873.308 54.58C873.928 55.74 874.778 56.64 875.858 57.28C876.938 57.9 878.168 58.21 879.548 58.21C880.808 58.21 881.918 57.94 882.878 57.4C883.838 56.86 884.588 56.04 885.128 54.94H889.238C888.458 56.94 887.198 58.48 885.458 59.56C883.738 60.64 881.768 61.18 879.548 61.18C877.588 61.18 875.798 60.73 874.178 59.83C872.558 58.91 871.268 57.64 870.308 56.02C869.368 54.4 868.898 52.57 868.898 50.53ZM896.661 46.87C897.161 46.03 897.821 45.38 898.641 44.92C899.481 44.44 900.471 44.2 901.611 44.2V47.74H900.741C899.401 47.74 898.381 48.08 897.681 48.76C897.001 49.44 896.661 50.62 896.661 52.3V61H893.241V44.47H896.661V46.87ZM919.905 52.33C919.905 52.95 919.865 53.51 919.785 54.01H907.155C907.255 55.33 907.745 56.39 908.625 57.19C909.505 57.99 910.585 58.39 911.865 58.39C913.705 58.39 915.005 57.62 915.765 56.08H919.455C918.955 57.6 918.045 58.85 916.725 59.83C915.425 60.79 913.805 61.27 911.865 61.27C910.285 61.27 908.865 60.92 907.605 60.22C906.365 59.5 905.385 58.5 904.665 57.22C903.965 55.92 903.615 54.42 903.615 52.72C903.615 51.02 903.955 49.53 904.635 48.25C905.335 46.95 906.305 45.95 907.545 45.25C908.805 44.55 910.245 44.2 911.865 44.2C913.425 44.2 914.815 44.54 916.035 45.22C917.255 45.9 918.205 46.86 918.885 48.1C919.565 49.32 919.905 50.73 919.905 52.33ZM916.335 51.25C916.315 49.99 915.865 48.98 914.985 48.22C914.105 47.46 913.015 47.08 911.715 47.08C910.535 47.08 909.525 47.46 908.685 48.22C907.845 48.96 907.345 49.97 907.185 51.25H916.335ZM922.131 52.66C922.131 51 922.471 49.53 923.151 48.25C923.851 46.97 924.791 45.98 925.971 45.28C927.171 44.56 928.491 44.2 929.931 44.2C931.231 44.2 932.361 44.46 933.321 44.98C934.301 45.48 935.081 46.11 935.661 46.87V44.47H939.111V61H935.661V58.54C935.081 59.32 934.291 59.97 933.291 60.49C932.291 61.01 931.151 61.27 929.871 61.27C928.451 61.27 927.151 60.91 925.971 60.19C924.791 59.45 923.851 58.43 923.151 57.13C922.471 55.81 922.131 54.32 922.131 52.66ZM935.661 52.72C935.661 51.58 935.421 50.59 934.941 49.75C934.481 48.91 933.871 48.27 933.111 47.83C932.351 47.39 931.531 47.17 930.651 47.17C929.771 47.17 928.951 47.39 928.191 47.83C927.431 48.25 926.811 48.88 926.331 49.72C925.871 50.54 925.641 51.52 925.641 52.66C925.641 53.8 925.871 54.8 926.331 55.66C926.811 56.52 927.431 57.18 928.191 57.64C928.971 58.08 929.791 58.3 930.651 58.3C931.531 58.3 932.351 58.08 933.111 57.64C933.871 57.2 934.481 56.56 934.941 55.72C935.421 54.86 935.661 53.86 935.661 52.72ZM947.593 47.26V56.41C947.593 57.03 947.733 57.48 948.013 57.76C948.313 58.02 948.813 58.15 949.513 58.15H951.613V61H948.913C947.373 61 946.193 60.64 945.373 59.92C944.553 59.2 944.143 58.03 944.143 56.41V47.26H942.193V44.47H944.143V40.36H947.593V44.47H951.613V47.26H947.593ZM969.915 52.33C969.915 52.95 969.875 53.51 969.795 54.01H957.165C957.265 55.33 957.755 56.39 958.635 57.19C959.515 57.99 960.595 58.39 961.875 58.39C963.715 58.39 965.015 57.62 965.775 56.08H969.465C968.965 57.6 968.055 58.85 966.735 59.83C965.435 60.79 963.815 61.27 961.875 61.27C960.295 61.27 958.875 60.92 957.615 60.22C956.375 59.5 955.395 58.5 954.675 57.22C953.975 55.92 953.625 54.42 953.625 52.72C953.625 51.02 953.965 49.53 954.645 48.25C955.345 46.95 956.315 45.95 957.555 45.25C958.815 44.55 960.255 44.2 961.875 44.2C963.435 44.2 964.825 44.54 966.045 45.22C967.265 45.9 968.215 46.86 968.895 48.1C969.575 49.32 969.915 50.73 969.915 52.33ZM966.345 51.25C966.325 49.99 965.875 48.98 964.995 48.22C964.115 47.46 963.025 47.08 961.725 47.08C960.545 47.08 959.535 47.46 958.695 48.22C957.855 48.96 957.355 49.97 957.195 51.25H966.345ZM979.933 52.66C979.933 51 980.273 49.53 980.953 48.25C981.653 46.97 982.593 45.98 983.773 45.28C984.973 44.56 986.293 44.2 987.733 44.2C989.033 44.2 990.163 44.46 991.123 44.98C992.103 45.48 992.883 46.11 993.463 46.87V44.47H996.913V61H993.463V58.54C992.883 59.32 992.093 59.97 991.093 60.49C990.093 61.01 988.953 61.27 987.673 61.27C986.253 61.27 984.953 60.91 983.773 60.19C982.593 59.45 981.653 58.43 980.953 57.13C980.273 55.81 979.933 54.32 979.933 52.66ZM993.463 52.72C993.463 51.58 993.223 50.59 992.743 49.75C992.283 48.91 991.673 48.27 990.913 47.83C990.153 47.39 989.333 47.17 988.453 47.17C987.573 47.17 986.753 47.39 985.993 47.83C985.233 48.25 984.613 48.88 984.133 49.72C983.673 50.54 983.443 51.52 983.443 52.66C983.443 53.8 983.673 54.8 984.133 55.66C984.613 56.52 985.233 57.18 985.993 57.64C986.773 58.08 987.593 58.3 988.453 58.3C989.333 58.3 990.153 58.08 990.913 57.64C991.673 57.2 992.283 56.56 992.743 55.72C993.223 54.86 993.463 53.86 993.463 52.72ZM1009.75 44.2C1011.05 44.2 1012.21 44.47 1013.23 45.01C1014.27 45.55 1015.08 46.35 1015.66 47.41C1016.24 48.47 1016.53 49.75 1016.53 51.25V61H1013.14V51.76C1013.14 50.28 1012.77 49.15 1012.03 48.37C1011.29 47.57 1010.28 47.17 1009 47.17C1007.72 47.17 1006.7 47.57 1005.94 48.37C1005.2 49.15 1004.83 50.28 1004.83 51.76V61H1001.41V44.47H1004.83V46.36C1005.39 45.68 1006.1 45.15 1006.96 44.77C1007.84 44.39 1008.77 44.2 1009.75 44.2ZM1019.75 52.66C1019.75 51 1020.09 49.53 1020.77 48.25C1021.47 46.97 1022.41 45.98 1023.59 45.28C1024.79 44.56 1026.12 44.2 1027.58 44.2C1028.66 44.2 1029.72 44.44 1030.76 44.92C1031.82 45.38 1032.66 46 1033.28 46.78V38.8H1036.73V61H1033.28V58.51C1032.72 59.31 1031.94 59.97 1030.94 60.49C1029.96 61.01 1028.83 61.27 1027.55 61.27C1026.11 61.27 1024.79 60.91 1023.59 60.19C1022.41 59.45 1021.47 58.43 1020.77 57.13C1020.09 55.81 1019.75 54.32 1019.75 52.66ZM1033.28 52.72C1033.28 51.58 1033.04 50.59 1032.56 49.75C1032.1 48.91 1031.49 48.27 1030.73 47.83C1029.97 47.39 1029.15 47.17 1028.27 47.17C1027.39 47.17 1026.57 47.39 1025.81 47.83C1025.05 48.25 1024.43 48.88 1023.95 49.72C1023.49 50.54 1023.26 51.52 1023.26 52.66C1023.26 53.8 1023.49 54.8 1023.95 55.66C1024.43 56.52 1025.05 57.18 1025.81 57.64C1026.59 58.08 1027.41 58.3 1028.27 58.3C1029.15 58.3 1029.97 58.08 1030.73 57.64C1031.49 57.2 1032.1 56.56 1032.56 55.72C1033.04 54.86 1033.28 53.86 1033.28 52.72ZM1070.97 40.15V61H1067.55V46.72L1061.19 61H1058.82L1052.43 46.72V61H1049.01V40.15H1052.7L1060.02 56.5L1067.31 40.15H1070.97ZM1074.33 52.66C1074.33 51 1074.67 49.53 1075.35 48.25C1076.05 46.97 1076.99 45.98 1078.17 45.28C1079.37 44.56 1080.69 44.2 1082.13 44.2C1083.43 44.2 1084.56 44.46 1085.52 44.98C1086.5 45.48 1087.28 46.11 1087.86 46.87V44.47H1091.31V61H1087.86V58.54C1087.28 59.32 1086.49 59.97 1085.49 60.49C1084.49 61.01 1083.35 61.27 1082.07 61.27C1080.65 61.27 1079.35 60.91 1078.17 60.19C1076.99 59.45 1076.05 58.43 1075.35 57.13C1074.67 55.81 1074.33 54.32 1074.33 52.66ZM1087.86 52.72C1087.86 51.58 1087.62 50.59 1087.14 49.75C1086.68 48.91 1086.07 48.27 1085.31 47.83C1084.55 47.39 1083.73 47.17 1082.85 47.17C1081.97 47.17 1081.15 47.39 1080.39 47.83C1079.63 48.25 1079.01 48.88 1078.53 49.72C1078.07 50.54 1077.84 51.52 1077.84 52.66C1077.84 53.8 1078.07 54.8 1078.53 55.66C1079.01 56.52 1079.63 57.18 1080.39 57.64C1081.17 58.08 1081.99 58.3 1082.85 58.3C1083.73 58.3 1084.55 58.08 1085.31 57.64C1086.07 57.2 1086.68 56.56 1087.14 55.72C1087.62 54.86 1087.86 53.86 1087.86 52.72ZM1104.14 44.2C1105.44 44.2 1106.6 44.47 1107.62 45.01C1108.66 45.55 1109.47 46.35 1110.05 47.41C1110.63 48.47 1110.92 49.75 1110.92 51.25V61H1107.53V51.76C1107.53 50.28 1107.16 49.15 1106.42 48.37C1105.68 47.57 1104.67 47.17 1103.39 47.17C1102.11 47.17 1101.09 47.57 1100.33 48.37C1099.59 49.15 1099.22 50.28 1099.22 51.76V61H1095.8V44.47H1099.22V46.36C1099.78 45.68 1100.49 45.15 1101.35 44.77C1102.23 44.39 1103.16 44.2 1104.14 44.2ZM1114.14 52.66C1114.14 51 1114.48 49.53 1115.16 48.25C1115.86 46.97 1116.8 45.98 1117.98 45.28C1119.18 44.56 1120.5 44.2 1121.94 44.2C1123.24 44.2 1124.37 44.46 1125.33 44.98C1126.31 45.48 1127.09 46.11 1127.67 46.87V44.47H1131.12V61H1127.67V58.54C1127.09 59.32 1126.3 59.97 1125.3 60.49C1124.3 61.01 1123.16 61.27 1121.88 61.27C1120.46 61.27 1119.16 60.91 1117.98 60.19C1116.8 59.45 1115.86 58.43 1115.16 57.13C1114.48 55.81 1114.14 54.32 1114.14 52.66ZM1127.67 52.72C1127.67 51.58 1127.43 50.59 1126.95 49.75C1126.49 48.91 1125.88 48.27 1125.12 47.83C1124.36 47.39 1123.54 47.17 1122.66 47.17C1121.78 47.17 1120.96 47.39 1120.2 47.83C1119.44 48.25 1118.82 48.88 1118.34 49.72C1117.88 50.54 1117.65 51.52 1117.65 52.66C1117.65 53.8 1117.88 54.8 1118.34 55.66C1118.82 56.52 1119.44 57.18 1120.2 57.64C1120.98 58.08 1121.8 58.3 1122.66 58.3C1123.54 58.3 1124.36 58.08 1125.12 57.64C1125.88 57.2 1126.49 56.56 1126.95 55.72C1127.43 54.86 1127.67 53.86 1127.67 52.72ZM1142.27 44.2C1143.55 44.2 1144.68 44.46 1145.66 44.98C1146.66 45.48 1147.44 46.11 1148 46.87V44.47H1151.45V61.27C1151.45 62.79 1151.13 64.14 1150.49 65.32C1149.85 66.52 1148.92 67.46 1147.7 68.14C1146.5 68.82 1145.06 69.16 1143.38 69.16C1141.14 69.16 1139.28 68.63 1137.8 67.57C1136.32 66.53 1135.48 65.11 1135.28 63.31H1138.67C1138.93 64.17 1139.48 64.86 1140.32 65.38C1141.18 65.92 1142.2 66.19 1143.38 66.19C1144.76 66.19 1145.87 65.77 1146.71 64.93C1147.57 64.09 1148 62.87 1148 61.27V58.51C1147.42 59.29 1146.63 59.95 1145.63 60.49C1144.65 61.01 1143.53 61.27 1142.27 61.27C1140.83 61.27 1139.51 60.91 1138.31 60.19C1137.13 59.45 1136.19 58.43 1135.49 57.13C1134.81 55.81 1134.47 54.32 1134.47 52.66C1134.47 51 1134.81 49.53 1135.49 48.25C1136.19 46.97 1137.13 45.98 1138.31 45.28C1139.51 44.56 1140.83 44.2 1142.27 44.2ZM1148 52.72C1148 51.58 1147.76 50.59 1147.28 49.75C1146.82 48.91 1146.21 48.27 1145.45 47.83C1144.69 47.39 1143.87 47.17 1142.99 47.17C1142.11 47.17 1141.29 47.39 1140.53 47.83C1139.77 48.25 1139.15 48.88 1138.67 49.72C1138.21 50.54 1137.98 51.52 1137.98 52.66C1137.98 53.8 1138.21 54.8 1138.67 55.66C1139.15 56.52 1139.77 57.18 1140.53 57.64C1141.31 58.08 1142.13 58.3 1142.99 58.3C1143.87 58.3 1144.69 58.08 1145.45 57.64C1146.21 57.2 1146.82 56.56 1147.28 55.72C1147.76 54.86 1148 53.86 1148 52.72ZM1171.1 52.33C1171.1 52.95 1171.06 53.51 1170.98 54.01H1158.35C1158.45 55.33 1158.94 56.39 1159.82 57.19C1160.7 57.99 1161.78 58.39 1163.06 58.39C1164.9 58.39 1166.2 57.62 1166.96 56.08H1170.65C1170.15 57.6 1169.24 58.85 1167.92 59.83C1166.62 60.79 1165 61.27 1163.06 61.27C1161.48 61.27 1160.06 60.92 1158.8 60.22C1157.56 59.5 1156.58 58.5 1155.86 57.22C1155.16 55.92 1154.81 54.42 1154.81 52.72C1154.81 51.02 1155.15 49.53 1155.83 48.25C1156.53 46.95 1157.5 45.95 1158.74 45.25C1160 44.55 1161.44 44.2 1163.06 44.2C1164.62 44.2 1166.01 44.54 1167.23 45.22C1168.45 45.9 1169.4 46.86 1170.08 48.1C1170.76 49.32 1171.1 50.73 1171.1 52.33ZM1167.53 51.25C1167.51 49.99 1167.06 48.98 1166.18 48.22C1165.3 47.46 1164.21 47.08 1162.91 47.08C1161.73 47.08 1160.72 47.46 1159.88 48.22C1159.04 48.96 1158.54 49.97 1158.38 51.25H1167.53ZM982.426 91.36C982.426 92.42 982.176 93.42 981.676 94.36C981.176 95.3 980.376 96.07 979.276 96.67C978.176 97.25 976.766 97.54 975.046 97.54H971.266V106H967.846V85.15H975.046C976.646 85.15 977.996 85.43 979.096 85.99C980.216 86.53 981.046 87.27 981.586 88.21C982.146 89.15 982.426 90.2 982.426 91.36ZM975.046 94.75C976.346 94.75 977.316 94.46 977.956 93.88C978.596 93.28 978.916 92.44 978.916 91.36C978.916 89.08 977.626 87.94 975.046 87.94H971.266V94.75H975.046ZM989.108 91.87C989.608 91.03 990.268 90.38 991.088 89.92C991.928 89.44 992.918 89.2 994.058 89.2V92.74H993.188C991.848 92.74 990.828 93.08 990.128 93.76C989.448 94.44 989.108 95.62 989.108 97.3V106H985.688V89.47H989.108V91.87ZM1004.37 106.27C1002.81 106.27 1001.4 105.92 1000.14 105.22C998.881 104.5 997.891 103.5 997.171 102.22C996.451 100.92 996.091 99.42 996.091 97.72C996.091 96.04 996.461 94.55 997.201 93.25C997.941 91.95 998.951 90.95 1000.23 90.25C1001.51 89.55 1002.94 89.2 1004.52 89.2C1006.1 89.2 1007.53 89.55 1008.81 90.25C1010.09 90.95 1011.1 91.95 1011.84 93.25C1012.58 94.55 1012.95 96.04 1012.95 97.72C1012.95 99.4 1012.57 100.89 1011.81 102.19C1011.05 103.49 1010.01 104.5 1008.69 105.22C1007.39 105.92 1005.95 106.27 1004.37 106.27ZM1004.37 103.3C1005.25 103.3 1006.07 103.09 1006.83 102.67C1007.61 102.25 1008.24 101.62 1008.72 100.78C1009.2 99.94 1009.44 98.92 1009.44 97.72C1009.44 96.52 1009.21 95.51 1008.75 94.69C1008.29 93.85 1007.68 93.22 1006.92 92.8C1006.16 92.38 1005.34 92.17 1004.46 92.17C1003.58 92.17 1002.76 92.38 1002 92.8C1001.26 93.22 1000.67 93.85 1000.23 94.69C999.791 95.51 999.571 96.52 999.571 97.72C999.571 99.5 1000.02 100.88 1000.92 101.86C1001.84 102.82 1002.99 103.3 1004.37 103.3ZM1023.26 92.26H1020.2V106H1016.75V92.26H1014.8V89.47H1016.75V88.3C1016.75 86.4 1017.25 85.02 1018.25 84.16C1019.27 83.28 1020.86 82.84 1023.02 82.84V85.69C1021.98 85.69 1021.25 85.89 1020.83 86.29C1020.41 86.67 1020.2 87.34 1020.2 88.3V89.47H1023.26V92.26ZM1028.03 87.28C1027.41 87.28 1026.89 87.07 1026.47 86.65C1026.05 86.23 1025.84 85.71 1025.84 85.09C1025.84 84.47 1026.05 83.95 1026.47 83.53C1026.89 83.11 1027.41 82.9 1028.03 82.9C1028.63 82.9 1029.14 83.11 1029.56 83.53C1029.98 83.95 1030.19 84.47 1030.19 85.09C1030.19 85.71 1029.98 86.23 1029.56 86.65C1029.14 87.07 1028.63 87.28 1028.03 87.28ZM1029.71 89.47V106H1026.29V89.47H1029.71ZM1037.62 83.8V106H1034.2V83.8H1037.62ZM1057.26 97.33C1057.26 97.95 1057.22 98.51 1057.14 99.01H1044.51C1044.61 100.33 1045.1 101.39 1045.98 102.19C1046.86 102.99 1047.94 103.39 1049.22 103.39C1051.06 103.39 1052.36 102.62 1053.12 101.08H1056.81C1056.31 102.6 1055.4 103.85 1054.08 104.83C1052.78 105.79 1051.16 106.27 1049.22 106.27C1047.64 106.27 1046.22 105.92 1044.96 105.22C1043.72 104.5 1042.74 103.5 1042.02 102.22C1041.32 100.92 1040.97 99.42 1040.97 97.72C1040.97 96.02 1041.31 94.53 1041.99 93.25C1042.69 91.95 1043.66 90.95 1044.9 90.25C1046.16 89.55 1047.6 89.2 1049.22 89.2C1050.78 89.2 1052.17 89.54 1053.39 90.22C1054.61 90.9 1055.56 91.86 1056.24 93.1C1056.92 94.32 1057.26 95.73 1057.26 97.33ZM1053.69 96.25C1053.67 94.99 1053.22 93.98 1052.34 93.22C1051.46 92.46 1050.37 92.08 1049.07 92.08C1047.89 92.08 1046.88 92.46 1046.04 93.22C1045.2 93.96 1044.7 94.97 1044.54 96.25H1053.69ZM1066.63 106.27C1065.33 106.27 1064.16 106.04 1063.12 105.58C1062.1 105.1 1061.29 104.46 1060.69 103.66C1060.09 102.84 1059.77 101.93 1059.73 100.93H1063.27C1063.33 101.63 1063.66 102.22 1064.26 102.7C1064.88 103.16 1065.65 103.39 1066.57 103.39C1067.53 103.39 1068.27 103.21 1068.79 102.85C1069.33 102.47 1069.6 101.99 1069.6 101.41C1069.6 100.79 1069.3 100.33 1068.7 100.03C1068.12 99.73 1067.19 99.4 1065.91 99.04C1064.67 98.7 1063.66 98.37 1062.88 98.05C1062.1 97.73 1061.42 97.24 1060.84 96.58C1060.28 95.92 1060 95.05 1060 93.97C1060 93.09 1060.26 92.29 1060.78 91.57C1061.3 90.83 1062.04 90.25 1063 89.83C1063.98 89.41 1065.1 89.2 1066.36 89.2C1068.24 89.2 1069.75 89.68 1070.89 90.64C1072.05 91.58 1072.67 92.87 1072.75 94.51H1069.33C1069.27 93.77 1068.97 93.18 1068.43 92.74C1067.89 92.3 1067.16 92.08 1066.24 92.08C1065.34 92.08 1064.65 92.25 1064.17 92.59C1063.69 92.93 1063.45 93.38 1063.45 93.94C1063.45 94.38 1063.61 94.75 1063.93 95.05C1064.25 95.35 1064.64 95.59 1065.1 95.77C1065.56 95.93 1066.24 96.14 1067.14 96.4C1068.34 96.72 1069.32 97.05 1070.08 97.39C1070.86 97.71 1071.53 98.19 1072.09 98.83C1072.65 99.47 1072.94 100.32 1072.96 101.38C1072.96 102.32 1072.7 103.16 1072.18 103.9C1071.66 104.64 1070.92 105.22 1069.96 105.64C1069.02 106.06 1067.91 106.27 1066.63 106.27Z" fill="#262E3A"/>
</g>
<g filter="url(#filter3_d_1431_1524)">
<rect x="1226" y="10" width="402" height="126" rx="2" fill="#D9E6F6"/>
<path d="M1332.28 40.15V53.44C1332.28 55.02 1332.69 56.21 1333.51 57.01C1334.35 57.81 1335.51 58.21 1336.99 58.21C1338.49 58.21 1339.65 57.81 1340.47 57.01C1341.31 56.21 1341.73 55.02 1341.73 53.44V40.15H1345.15V53.38C1345.15 55.08 1344.78 56.52 1344.04 57.7C1343.3 58.88 1342.31 59.76 1341.07 60.34C1339.83 60.92 1338.46 61.21 1336.96 61.21C1335.46 61.21 1334.09 60.92 1332.85 60.34C1331.63 59.76 1330.66 58.88 1329.94 57.7C1329.22 56.52 1328.86 55.08 1328.86 53.38V40.15H1332.28ZM1355.61 61.27C1354.31 61.27 1353.14 61.04 1352.1 60.58C1351.08 60.1 1350.27 59.46 1349.67 58.66C1349.07 57.84 1348.75 56.93 1348.71 55.93H1352.25C1352.31 56.63 1352.64 57.22 1353.24 57.7C1353.86 58.16 1354.63 58.39 1355.55 58.39C1356.51 58.39 1357.25 58.21 1357.77 57.85C1358.31 57.47 1358.58 56.99 1358.58 56.41C1358.58 55.79 1358.28 55.33 1357.68 55.03C1357.1 54.73 1356.17 54.4 1354.89 54.04C1353.65 53.7 1352.64 53.37 1351.86 53.05C1351.08 52.73 1350.4 52.24 1349.82 51.58C1349.26 50.92 1348.98 50.05 1348.98 48.97C1348.98 48.09 1349.24 47.29 1349.76 46.57C1350.28 45.83 1351.02 45.25 1351.98 44.83C1352.96 44.41 1354.08 44.2 1355.34 44.2C1357.22 44.2 1358.73 44.68 1359.87 45.64C1361.03 46.58 1361.65 47.87 1361.73 49.51H1358.31C1358.25 48.77 1357.95 48.18 1357.41 47.74C1356.87 47.3 1356.14 47.08 1355.22 47.08C1354.32 47.08 1353.63 47.25 1353.15 47.59C1352.67 47.93 1352.43 48.38 1352.43 48.94C1352.43 49.38 1352.59 49.75 1352.91 50.05C1353.23 50.35 1353.62 50.59 1354.08 50.77C1354.54 50.93 1355.22 51.14 1356.12 51.4C1357.32 51.72 1358.3 52.05 1359.06 52.39C1359.84 52.71 1360.51 53.19 1361.07 53.83C1361.63 54.47 1361.92 55.32 1361.94 56.38C1361.94 57.32 1361.68 58.16 1361.16 58.9C1360.64 59.64 1359.9 60.22 1358.94 60.64C1358 61.06 1356.89 61.27 1355.61 61.27ZM1380.78 52.33C1380.78 52.95 1380.74 53.51 1380.66 54.01H1368.03C1368.13 55.33 1368.62 56.39 1369.5 57.19C1370.38 57.99 1371.46 58.39 1372.74 58.39C1374.58 58.39 1375.88 57.62 1376.64 56.08H1380.33C1379.83 57.6 1378.92 58.85 1377.6 59.83C1376.3 60.79 1374.68 61.27 1372.74 61.27C1371.16 61.27 1369.74 60.92 1368.48 60.22C1367.24 59.5 1366.26 58.5 1365.54 57.22C1364.84 55.92 1364.49 54.42 1364.49 52.72C1364.49 51.02 1364.83 49.53 1365.51 48.25C1366.21 46.95 1367.18 45.95 1368.42 45.25C1369.68 44.55 1371.12 44.2 1372.74 44.2C1374.3 44.2 1375.69 44.54 1376.91 45.22C1378.13 45.9 1379.08 46.86 1379.76 48.1C1380.44 49.32 1380.78 50.73 1380.78 52.33ZM1377.21 51.25C1377.19 49.99 1376.74 48.98 1375.86 48.22C1374.98 47.46 1373.89 47.08 1372.59 47.08C1371.41 47.08 1370.4 47.46 1369.56 48.22C1368.72 48.96 1368.22 49.97 1368.06 51.25H1377.21ZM1387.57 46.87C1388.07 46.03 1388.73 45.38 1389.55 44.92C1390.39 44.44 1391.38 44.2 1392.52 44.2V47.74H1391.65C1390.31 47.74 1389.29 48.08 1388.59 48.76C1387.91 49.44 1387.57 50.62 1387.57 52.3V61H1384.15V44.47H1387.57V46.87ZM1416.02 56.74H1407.29L1405.79 61H1402.22L1409.69 40.12H1413.65L1421.12 61H1417.52L1416.02 56.74ZM1415.06 53.95L1411.67 44.26L1408.25 53.95H1415.06ZM1423.23 52.72C1423.23 51.02 1423.57 49.53 1424.25 48.25C1424.95 46.95 1425.91 45.95 1427.13 45.25C1428.35 44.55 1429.75 44.2 1431.33 44.2C1433.33 44.2 1434.98 44.68 1436.28 45.64C1437.6 46.58 1438.49 47.93 1438.95 49.69H1435.26C1434.96 48.87 1434.48 48.23 1433.82 47.77C1433.16 47.31 1432.33 47.08 1431.33 47.08C1429.93 47.08 1428.81 47.58 1427.97 48.58C1427.15 49.56 1426.74 50.94 1426.74 52.72C1426.74 54.5 1427.15 55.89 1427.97 56.89C1428.81 57.89 1429.93 58.39 1431.33 58.39C1433.31 58.39 1434.62 57.52 1435.26 55.78H1438.95C1438.47 57.46 1437.57 58.8 1436.25 59.8C1434.93 60.78 1433.29 61.27 1431.33 61.27C1429.75 61.27 1428.35 60.92 1427.13 60.22C1425.91 59.5 1424.95 58.5 1424.25 57.22C1423.57 55.92 1423.23 54.42 1423.23 52.72ZM1441.22 52.72C1441.22 51.02 1441.56 49.53 1442.24 48.25C1442.94 46.95 1443.9 45.95 1445.12 45.25C1446.34 44.55 1447.74 44.2 1449.32 44.2C1451.32 44.2 1452.97 44.68 1454.27 45.64C1455.59 46.58 1456.48 47.93 1456.94 49.69H1453.25C1452.95 48.87 1452.47 48.23 1451.81 47.77C1451.15 47.31 1450.32 47.08 1449.32 47.08C1447.92 47.08 1446.8 47.58 1445.96 48.58C1445.14 49.56 1444.73 50.94 1444.73 52.72C1444.73 54.5 1445.14 55.89 1445.96 56.89C1446.8 57.89 1447.92 58.39 1449.32 58.39C1451.3 58.39 1452.61 57.52 1453.25 55.78H1456.94C1456.46 57.46 1455.56 58.8 1454.24 59.8C1452.92 60.78 1451.28 61.27 1449.32 61.27C1447.74 61.27 1446.34 60.92 1445.12 60.22C1443.9 59.5 1442.94 58.5 1442.24 57.22C1441.56 55.92 1441.22 54.42 1441.22 52.72ZM1467.52 61.27C1465.96 61.27 1464.55 60.92 1463.29 60.22C1462.03 59.5 1461.04 58.5 1460.32 57.22C1459.6 55.92 1459.24 54.42 1459.24 52.72C1459.24 51.04 1459.61 49.55 1460.35 48.25C1461.09 46.95 1462.1 45.95 1463.38 45.25C1464.66 44.55 1466.09 44.2 1467.67 44.2C1469.25 44.2 1470.68 44.55 1471.96 45.25C1473.24 45.95 1474.25 46.95 1474.99 48.25C1475.73 49.55 1476.1 51.04 1476.1 52.72C1476.1 54.4 1475.72 55.89 1474.96 57.19C1474.2 58.49 1473.16 59.5 1471.84 60.22C1470.54 60.92 1469.1 61.27 1467.52 61.27ZM1467.52 58.3C1468.4 58.3 1469.22 58.09 1469.98 57.67C1470.76 57.25 1471.39 56.62 1471.87 55.78C1472.35 54.94 1472.59 53.92 1472.59 52.72C1472.59 51.52 1472.36 50.51 1471.9 49.69C1471.44 48.85 1470.83 48.22 1470.07 47.8C1469.31 47.38 1468.49 47.17 1467.61 47.17C1466.73 47.17 1465.91 47.38 1465.15 47.8C1464.41 48.22 1463.82 48.85 1463.38 49.69C1462.94 50.51 1462.72 51.52 1462.72 52.72C1462.72 54.5 1463.17 55.88 1464.07 56.86C1464.99 57.82 1466.14 58.3 1467.52 58.3ZM1494.45 44.47V61H1491.03V59.05C1490.49 59.73 1489.78 60.27 1488.9 60.67C1488.04 61.05 1487.12 61.24 1486.14 61.24C1484.84 61.24 1483.67 60.97 1482.63 60.43C1481.61 59.89 1480.8 59.09 1480.2 58.03C1479.62 56.97 1479.33 55.69 1479.33 54.19V44.47H1482.72V53.68C1482.72 55.16 1483.09 56.3 1483.83 57.1C1484.57 57.88 1485.58 58.27 1486.86 58.27C1488.14 58.27 1489.15 57.88 1489.89 57.1C1490.65 56.3 1491.03 55.16 1491.03 53.68V44.47H1494.45ZM1507.3 44.2C1508.6 44.2 1509.76 44.47 1510.78 45.01C1511.82 45.55 1512.63 46.35 1513.21 47.41C1513.79 48.47 1514.08 49.75 1514.08 51.25V61H1510.69V51.76C1510.69 50.28 1510.32 49.15 1509.58 48.37C1508.84 47.57 1507.83 47.17 1506.55 47.17C1505.27 47.17 1504.25 47.57 1503.49 48.37C1502.75 49.15 1502.38 50.28 1502.38 51.76V61H1498.96V44.47H1502.38V46.36C1502.94 45.68 1503.65 45.15 1504.51 44.77C1505.39 44.39 1506.32 44.2 1507.3 44.2ZM1522.43 47.26V56.41C1522.43 57.03 1522.57 57.48 1522.85 57.76C1523.15 58.02 1523.65 58.15 1524.35 58.15H1526.45V61H1523.75C1522.21 61 1521.03 60.64 1520.21 59.92C1519.39 59.2 1518.98 58.03 1518.98 56.41V47.26H1517.03V44.47H1518.98V40.36H1522.43V44.47H1526.45V47.26H1522.43ZM1349.2 85.15V106H1345.78V85.15H1349.2ZM1362.03 89.2C1363.33 89.2 1364.49 89.47 1365.51 90.01C1366.55 90.55 1367.36 91.35 1367.94 92.41C1368.52 93.47 1368.81 94.75 1368.81 96.25V106H1365.42V96.76C1365.42 95.28 1365.05 94.15 1364.31 93.37C1363.57 92.57 1362.56 92.17 1361.28 92.17C1360 92.17 1358.98 92.57 1358.22 93.37C1357.48 94.15 1357.11 95.28 1357.11 96.76V106H1353.69V89.47H1357.11V91.36C1357.67 90.68 1358.38 90.15 1359.24 89.77C1360.12 89.39 1361.05 89.2 1362.03 89.2ZM1377.17 92.26V101.41C1377.17 102.03 1377.31 102.48 1377.59 102.76C1377.89 103.02 1378.39 103.15 1379.09 103.15H1381.19V106H1378.49C1376.95 106 1375.77 105.64 1374.95 104.92C1374.13 104.2 1373.72 103.03 1373.72 101.41V92.26H1371.77V89.47H1373.72V85.36H1377.17V89.47H1381.19V92.26H1377.17ZM1399.49 97.33C1399.49 97.95 1399.45 98.51 1399.37 99.01H1386.74C1386.84 100.33 1387.33 101.39 1388.21 102.19C1389.09 102.99 1390.17 103.39 1391.45 103.39C1393.29 103.39 1394.59 102.62 1395.35 101.08H1399.04C1398.54 102.6 1397.63 103.85 1396.31 104.83C1395.01 105.79 1393.39 106.27 1391.45 106.27C1389.87 106.27 1388.45 105.92 1387.19 105.22C1385.95 104.5 1384.97 103.5 1384.25 102.22C1383.55 100.92 1383.2 99.42 1383.2 97.72C1383.2 96.02 1383.54 94.53 1384.22 93.25C1384.92 91.95 1385.89 90.95 1387.13 90.25C1388.39 89.55 1389.83 89.2 1391.45 89.2C1393.01 89.2 1394.4 89.54 1395.62 90.22C1396.84 90.9 1397.79 91.86 1398.47 93.1C1399.15 94.32 1399.49 95.73 1399.49 97.33ZM1395.92 96.25C1395.9 94.99 1395.45 93.98 1394.57 93.22C1393.69 92.46 1392.6 92.08 1391.3 92.08C1390.12 92.08 1389.11 92.46 1388.27 93.22C1387.43 93.96 1386.93 94.97 1386.77 96.25H1395.92ZM1409.51 89.2C1410.79 89.2 1411.92 89.46 1412.9 89.98C1413.9 90.48 1414.68 91.11 1415.24 91.87V89.47H1418.69V106.27C1418.69 107.79 1418.37 109.14 1417.73 110.32C1417.09 111.52 1416.16 112.46 1414.94 113.14C1413.74 113.82 1412.3 114.16 1410.62 114.16C1408.38 114.16 1406.52 113.63 1405.04 112.57C1403.56 111.53 1402.72 110.11 1402.52 108.31H1405.91C1406.17 109.17 1406.72 109.86 1407.56 110.38C1408.42 110.92 1409.44 111.19 1410.62 111.19C1412 111.19 1413.11 110.77 1413.95 109.93C1414.81 109.09 1415.24 107.87 1415.24 106.27V103.51C1414.66 104.29 1413.87 104.95 1412.87 105.49C1411.89 106.01 1410.77 106.27 1409.51 106.27C1408.07 106.27 1406.75 105.91 1405.55 105.19C1404.37 104.45 1403.43 103.43 1402.73 102.13C1402.05 100.81 1401.71 99.32 1401.71 97.66C1401.71 96 1402.05 94.53 1402.73 93.25C1403.43 91.97 1404.37 90.98 1405.55 90.28C1406.75 89.56 1408.07 89.2 1409.51 89.2ZM1415.24 97.72C1415.24 96.58 1415 95.59 1414.52 94.75C1414.06 93.91 1413.45 93.27 1412.69 92.83C1411.93 92.39 1411.11 92.17 1410.23 92.17C1409.35 92.17 1408.53 92.39 1407.77 92.83C1407.01 93.25 1406.39 93.88 1405.91 94.72C1405.45 95.54 1405.22 96.52 1405.22 97.66C1405.22 98.8 1405.45 99.8 1405.91 100.66C1406.39 101.52 1407.01 102.18 1407.77 102.64C1408.55 103.08 1409.37 103.3 1410.23 103.3C1411.11 103.3 1411.93 103.08 1412.69 102.64C1413.45 102.2 1414.06 101.56 1414.52 100.72C1415 99.86 1415.24 98.86 1415.24 97.72ZM1426.61 91.87C1427.11 91.03 1427.77 90.38 1428.59 89.92C1429.43 89.44 1430.42 89.2 1431.56 89.2V92.74H1430.69C1429.35 92.74 1428.33 93.08 1427.63 93.76C1426.95 94.44 1426.61 95.62 1426.61 97.3V106H1423.19V89.47H1426.61V91.87ZM1433.56 97.66C1433.56 96 1433.9 94.53 1434.58 93.25C1435.28 91.97 1436.22 90.98 1437.4 90.28C1438.6 89.56 1439.92 89.2 1441.36 89.2C1442.66 89.2 1443.79 89.46 1444.75 89.98C1445.73 90.48 1446.51 91.11 1447.09 91.87V89.47H1450.54V106H1447.09V103.54C1446.51 104.32 1445.72 104.97 1444.72 105.49C1443.72 106.01 1442.58 106.27 1441.3 106.27C1439.88 106.27 1438.58 105.91 1437.4 105.19C1436.22 104.45 1435.28 103.43 1434.58 102.13C1433.9 100.81 1433.56 99.32 1433.56 97.66ZM1447.09 97.72C1447.09 96.58 1446.85 95.59 1446.37 94.75C1445.91 93.91 1445.3 93.27 1444.54 92.83C1443.78 92.39 1442.96 92.17 1442.08 92.17C1441.2 92.17 1440.38 92.39 1439.62 92.83C1438.86 93.25 1438.24 93.88 1437.76 94.72C1437.3 95.54 1437.07 96.52 1437.07 97.66C1437.07 98.8 1437.3 99.8 1437.76 100.66C1438.24 101.52 1438.86 102.18 1439.62 102.64C1440.4 103.08 1441.22 103.3 1442.08 103.3C1442.96 103.3 1443.78 103.08 1444.54 102.64C1445.3 102.2 1445.91 101.56 1446.37 100.72C1446.85 99.86 1447.09 98.86 1447.09 97.72ZM1459.02 92.26V101.41C1459.02 102.03 1459.16 102.48 1459.44 102.76C1459.74 103.02 1460.24 103.15 1460.94 103.15H1463.04V106H1460.34C1458.8 106 1457.62 105.64 1456.8 104.92C1455.98 104.2 1455.57 103.03 1455.57 101.41V92.26H1453.62V89.47H1455.57V85.36H1459.02V89.47H1463.04V92.26H1459.02ZM1467.93 87.28C1467.31 87.28 1466.79 87.07 1466.37 86.65C1465.95 86.23 1465.74 85.71 1465.74 85.09C1465.74 84.47 1465.95 83.95 1466.37 83.53C1466.79 83.11 1467.31 82.9 1467.93 82.9C1468.53 82.9 1469.04 83.11 1469.46 83.53C1469.88 83.95 1470.09 84.47 1470.09 85.09C1470.09 85.71 1469.88 86.23 1469.46 86.65C1469.04 87.07 1468.53 87.28 1467.93 87.28ZM1469.61 89.47V106H1466.19V89.47H1469.61ZM1481.27 106.27C1479.71 106.27 1478.3 105.92 1477.04 105.22C1475.78 104.5 1474.79 103.5 1474.07 102.22C1473.35 100.92 1472.99 99.42 1472.99 97.72C1472.99 96.04 1473.36 94.55 1474.1 93.25C1474.84 91.95 1475.85 90.95 1477.13 90.25C1478.41 89.55 1479.84 89.2 1481.42 89.2C1483 89.2 1484.43 89.55 1485.71 90.25C1486.99 90.95 1488 91.95 1488.74 93.25C1489.48 94.55 1489.85 96.04 1489.85 97.72C1489.85 99.4 1489.47 100.89 1488.71 102.19C1487.95 103.49 1486.91 104.5 1485.59 105.22C1484.29 105.92 1482.85 106.27 1481.27 106.27ZM1481.27 103.3C1482.15 103.3 1482.97 103.09 1483.73 102.67C1484.51 102.25 1485.14 101.62 1485.62 100.78C1486.1 99.94 1486.34 98.92 1486.34 97.72C1486.34 96.52 1486.11 95.51 1485.65 94.69C1485.19 93.85 1484.58 93.22 1483.82 92.8C1483.06 92.38 1482.24 92.17 1481.36 92.17C1480.48 92.17 1479.66 92.38 1478.9 92.8C1478.16 93.22 1477.57 93.85 1477.13 94.69C1476.69 95.51 1476.47 96.52 1476.47 97.72C1476.47 99.5 1476.92 100.88 1477.82 101.86C1478.74 102.82 1479.89 103.3 1481.27 103.3ZM1501.57 89.2C1502.87 89.2 1504.03 89.47 1505.05 90.01C1506.09 90.55 1506.9 91.35 1507.48 92.41C1508.06 93.47 1508.35 94.75 1508.35 96.25V106H1504.96V96.76C1504.96 95.28 1504.59 94.15 1503.85 93.37C1503.11 92.57 1502.1 92.17 1500.82 92.17C1499.54 92.17 1498.52 92.57 1497.76 93.37C1497.02 94.15 1496.65 95.28 1496.65 96.76V106H1493.23V89.47H1496.65V91.36C1497.21 90.68 1497.92 90.15 1498.78 89.77C1499.66 89.39 1500.59 89.2 1501.57 89.2Z" fill="#262E3A"/>
</g>
<g filter="url(#filter4_d_1431_1524)">
<rect x="1633" y="10" width="402" height="126" rx="2" fill="#E0D0F1"/>
<path d="M1683.09 56.74H1674.36L1672.86 61H1669.29L1676.76 40.12H1680.72L1688.19 61H1684.59L1683.09 56.74ZM1682.13 53.95L1678.74 44.26L1675.32 53.95H1682.13ZM1706.41 44.47V61H1702.99V59.05C1702.45 59.73 1701.74 60.27 1700.86 60.67C1700 61.05 1699.08 61.24 1698.1 61.24C1696.8 61.24 1695.63 60.97 1694.59 60.43C1693.57 59.89 1692.76 59.09 1692.16 58.03C1691.58 56.97 1691.29 55.69 1691.29 54.19V44.47H1694.68V53.68C1694.68 55.16 1695.05 56.3 1695.79 57.1C1696.53 57.88 1697.54 58.27 1698.82 58.27C1700.1 58.27 1701.11 57.88 1701.85 57.1C1702.61 56.3 1702.99 55.16 1702.99 53.68V44.47H1706.41ZM1714.91 47.26V56.41C1714.91 57.03 1715.05 57.48 1715.33 57.76C1715.63 58.02 1716.13 58.15 1716.83 58.15H1718.93V61H1716.23C1714.69 61 1713.51 60.64 1712.69 59.92C1711.87 59.2 1711.46 58.03 1711.46 56.41V47.26H1709.51V44.47H1711.46V40.36H1714.91V44.47H1718.93V47.26H1714.91ZM1729.25 61.27C1727.69 61.27 1726.28 60.92 1725.02 60.22C1723.76 59.5 1722.77 58.5 1722.05 57.22C1721.33 55.92 1720.97 54.42 1720.97 52.72C1720.97 51.04 1721.34 49.55 1722.08 48.25C1722.82 46.95 1723.83 45.95 1725.11 45.25C1726.39 44.55 1727.82 44.2 1729.4 44.2C1730.98 44.2 1732.41 44.55 1733.69 45.25C1734.97 45.95 1735.98 46.95 1736.72 48.25C1737.46 49.55 1737.83 51.04 1737.83 52.72C1737.83 54.4 1737.45 55.89 1736.69 57.19C1735.93 58.49 1734.89 59.5 1733.57 60.22C1732.27 60.92 1730.83 61.27 1729.25 61.27ZM1729.25 58.3C1730.13 58.3 1730.95 58.09 1731.71 57.67C1732.49 57.25 1733.12 56.62 1733.6 55.78C1734.08 54.94 1734.32 53.92 1734.32 52.72C1734.32 51.52 1734.09 50.51 1733.63 49.69C1733.17 48.85 1732.56 48.22 1731.8 47.8C1731.04 47.38 1730.22 47.17 1729.34 47.17C1728.46 47.17 1727.64 47.38 1726.88 47.8C1726.14 48.22 1725.55 48.85 1725.11 49.69C1724.67 50.51 1724.45 51.52 1724.45 52.72C1724.45 54.5 1724.9 55.88 1725.8 56.86C1726.72 57.82 1727.87 58.3 1729.25 58.3ZM1753.9 48.7V51.58H1741.57V48.7H1753.9ZM1771.33 56.74H1762.6L1761.1 61H1757.53L1765 40.12H1768.96L1776.43 61H1772.83L1771.33 56.74ZM1770.37 53.95L1766.98 44.26L1763.56 53.95H1770.37ZM1783.1 46.9C1783.68 46.14 1784.47 45.5 1785.47 44.98C1786.47 44.46 1787.6 44.2 1788.86 44.2C1790.3 44.2 1791.61 44.56 1792.79 45.28C1793.99 45.98 1794.93 46.97 1795.61 48.25C1796.29 49.53 1796.63 51 1796.63 52.66C1796.63 54.32 1796.29 55.81 1795.61 57.13C1794.93 58.43 1793.99 59.45 1792.79 60.19C1791.61 60.91 1790.3 61.27 1788.86 61.27C1787.6 61.27 1786.48 61.02 1785.5 60.52C1784.52 60 1783.72 59.36 1783.1 58.6V68.86H1779.68V44.47H1783.1V46.9ZM1793.15 52.66C1793.15 51.52 1792.91 50.54 1792.43 49.72C1791.97 48.88 1791.35 48.25 1790.57 47.83C1789.81 47.39 1788.99 47.17 1788.11 47.17C1787.25 47.17 1786.43 47.39 1785.65 47.83C1784.89 48.27 1784.27 48.91 1783.79 49.75C1783.33 50.59 1783.1 51.58 1783.1 52.72C1783.1 53.86 1783.33 54.86 1783.79 55.72C1784.27 56.56 1784.89 57.2 1785.65 57.64C1786.43 58.08 1787.25 58.3 1788.11 58.3C1788.99 58.3 1789.81 58.08 1790.57 57.64C1791.35 57.18 1791.97 56.52 1792.43 55.66C1792.91 54.8 1793.15 53.8 1793.15 52.66ZM1803.43 46.9C1804.01 46.14 1804.8 45.5 1805.8 44.98C1806.8 44.46 1807.93 44.2 1809.19 44.2C1810.63 44.2 1811.94 44.56 1813.12 45.28C1814.32 45.98 1815.26 46.97 1815.94 48.25C1816.62 49.53 1816.96 51 1816.96 52.66C1816.96 54.32 1816.62 55.81 1815.94 57.13C1815.26 58.43 1814.32 59.45 1813.12 60.19C1811.94 60.91 1810.63 61.27 1809.19 61.27C1807.93 61.27 1806.81 61.02 1805.83 60.52C1804.85 60 1804.05 59.36 1803.43 58.6V68.86H1800.01V44.47H1803.43V46.9ZM1813.48 52.66C1813.48 51.52 1813.24 50.54 1812.76 49.72C1812.3 48.88 1811.68 48.25 1810.9 47.83C1810.14 47.39 1809.32 47.17 1808.44 47.17C1807.58 47.17 1806.76 47.39 1805.98 47.83C1805.22 48.27 1804.6 48.91 1804.12 49.75C1803.66 50.59 1803.43 51.58 1803.43 52.72C1803.43 53.86 1803.66 54.86 1804.12 55.72C1804.6 56.56 1805.22 57.2 1805.98 57.64C1806.76 58.08 1807.58 58.3 1808.44 58.3C1809.32 58.3 1810.14 58.08 1810.9 57.64C1811.68 57.18 1812.3 56.52 1812.76 55.66C1813.24 54.8 1813.48 53.8 1813.48 52.66ZM1823.76 38.8V61H1820.34V38.8H1823.76ZM1843.13 44.47L1832.99 68.77H1829.45L1832.81 60.73L1826.3 44.47H1830.11L1834.76 57.07L1839.59 44.47H1843.13ZM1860.32 40.15C1862.54 40.15 1864.48 40.58 1866.14 41.44C1867.82 42.28 1869.11 43.5 1870.01 45.1C1870.93 46.68 1871.39 48.53 1871.39 50.65C1871.39 52.77 1870.93 54.61 1870.01 56.17C1869.11 57.73 1867.82 58.93 1866.14 59.77C1864.48 60.59 1862.54 61 1860.32 61H1853.51V40.15H1860.32ZM1860.32 58.21C1862.76 58.21 1864.63 57.55 1865.93 56.23C1867.23 54.91 1867.88 53.05 1867.88 50.65C1867.88 48.23 1867.23 46.34 1865.93 44.98C1864.63 43.62 1862.76 42.94 1860.32 42.94H1856.93V58.21H1860.32ZM1876.52 42.28C1875.9 42.28 1875.38 42.07 1874.96 41.65C1874.54 41.23 1874.33 40.71 1874.33 40.09C1874.33 39.47 1874.54 38.95 1874.96 38.53C1875.38 38.11 1875.9 37.9 1876.52 37.9C1877.12 37.9 1877.63 38.11 1878.05 38.53C1878.47 38.95 1878.68 39.47 1878.68 40.09C1878.68 40.71 1878.47 41.23 1878.05 41.65C1877.63 42.07 1877.12 42.28 1876.52 42.28ZM1878.2 44.47V61H1874.78V44.47H1878.2ZM1888.69 61.27C1887.39 61.27 1886.22 61.04 1885.18 60.58C1884.16 60.1 1883.35 59.46 1882.75 58.66C1882.15 57.84 1881.83 56.93 1881.79 55.93H1885.33C1885.39 56.63 1885.72 57.22 1886.32 57.7C1886.94 58.16 1887.71 58.39 1888.63 58.39C1889.59 58.39 1890.33 58.21 1890.85 57.85C1891.39 57.47 1891.66 56.99 1891.66 56.41C1891.66 55.79 1891.36 55.33 1890.76 55.03C1890.18 54.73 1889.25 54.4 1887.97 54.04C1886.73 53.7 1885.72 53.37 1884.94 53.05C1884.16 52.73 1883.48 52.24 1882.9 51.58C1882.34 50.92 1882.06 50.05 1882.06 48.97C1882.06 48.09 1882.32 47.29 1882.84 46.57C1883.36 45.83 1884.1 45.25 1885.06 44.83C1886.04 44.41 1887.16 44.2 1888.42 44.2C1890.3 44.2 1891.81 44.68 1892.95 45.64C1894.11 46.58 1894.73 47.87 1894.81 49.51H1891.39C1891.33 48.77 1891.03 48.18 1890.49 47.74C1889.95 47.3 1889.22 47.08 1888.3 47.08C1887.4 47.08 1886.71 47.25 1886.23 47.59C1885.75 47.93 1885.51 48.38 1885.51 48.94C1885.51 49.38 1885.67 49.75 1885.99 50.05C1886.31 50.35 1886.7 50.59 1887.16 50.77C1887.62 50.93 1888.3 51.14 1889.2 51.4C1890.4 51.72 1891.38 52.05 1892.14 52.39C1892.92 52.71 1893.59 53.19 1894.15 53.83C1894.71 54.47 1895 55.32 1895.02 56.38C1895.02 57.32 1894.76 58.16 1894.24 58.9C1893.72 59.64 1892.98 60.22 1892.02 60.64C1891.08 61.06 1889.97 61.27 1888.69 61.27ZM1897.57 52.72C1897.57 51.02 1897.91 49.53 1898.59 48.25C1899.29 46.95 1900.25 45.95 1901.47 45.25C1902.69 44.55 1904.09 44.2 1905.67 44.2C1907.67 44.2 1909.32 44.68 1910.62 45.64C1911.94 46.58 1912.83 47.93 1913.29 49.69H1909.6C1909.3 48.87 1908.82 48.23 1908.16 47.77C1907.5 47.31 1906.67 47.08 1905.67 47.08C1904.27 47.08 1903.15 47.58 1902.31 48.58C1901.49 49.56 1901.08 50.94 1901.08 52.72C1901.08 54.5 1901.49 55.89 1902.31 56.89C1903.15 57.89 1904.27 58.39 1905.67 58.39C1907.65 58.39 1908.96 57.52 1909.6 55.78H1913.29C1912.81 57.46 1911.91 58.8 1910.59 59.8C1909.27 60.78 1907.63 61.27 1905.67 61.27C1904.09 61.27 1902.69 60.92 1901.47 60.22C1900.25 59.5 1899.29 58.5 1898.59 57.22C1897.91 55.92 1897.57 54.42 1897.57 52.72ZM1923.87 61.27C1922.31 61.27 1920.9 60.92 1919.64 60.22C1918.38 59.5 1917.39 58.5 1916.67 57.22C1915.95 55.92 1915.59 54.42 1915.59 52.72C1915.59 51.04 1915.96 49.55 1916.7 48.25C1917.44 46.95 1918.45 45.95 1919.73 45.25C1921.01 44.55 1922.44 44.2 1924.02 44.2C1925.6 44.2 1927.03 44.55 1928.31 45.25C1929.59 45.95 1930.6 46.95 1931.34 48.25C1932.08 49.55 1932.45 51.04 1932.45 52.72C1932.45 54.4 1932.07 55.89 1931.31 57.19C1930.55 58.49 1929.51 59.5 1928.19 60.22C1926.89 60.92 1925.45 61.27 1923.87 61.27ZM1923.87 58.3C1924.75 58.3 1925.57 58.09 1926.33 57.67C1927.11 57.25 1927.74 56.62 1928.22 55.78C1928.7 54.94 1928.94 53.92 1928.94 52.72C1928.94 51.52 1928.71 50.51 1928.25 49.69C1927.79 48.85 1927.18 48.22 1926.42 47.8C1925.66 47.38 1924.84 47.17 1923.96 47.17C1923.08 47.17 1922.26 47.38 1921.5 47.8C1920.76 48.22 1920.17 48.85 1919.73 49.69C1919.29 50.51 1919.07 51.52 1919.07 52.72C1919.07 54.5 1919.52 55.88 1920.42 56.86C1921.34 57.82 1922.49 58.3 1923.87 58.3ZM1950.8 44.47V61H1947.38V59.05C1946.84 59.73 1946.13 60.27 1945.25 60.67C1944.39 61.05 1943.47 61.24 1942.49 61.24C1941.19 61.24 1940.02 60.97 1938.98 60.43C1937.96 59.89 1937.15 59.09 1936.55 58.03C1935.97 56.97 1935.68 55.69 1935.68 54.19V44.47H1939.07V53.68C1939.07 55.16 1939.44 56.3 1940.18 57.1C1940.92 57.88 1941.93 58.27 1943.21 58.27C1944.49 58.27 1945.5 57.88 1946.24 57.1C1947 56.3 1947.38 55.16 1947.38 53.68V44.47H1950.8ZM1963.65 44.2C1964.95 44.2 1966.11 44.47 1967.13 45.01C1968.17 45.55 1968.98 46.35 1969.56 47.41C1970.14 48.47 1970.43 49.75 1970.43 51.25V61H1967.04V51.76C1967.04 50.28 1966.67 49.15 1965.93 48.37C1965.19 47.57 1964.18 47.17 1962.9 47.17C1961.62 47.17 1960.6 47.57 1959.84 48.37C1959.1 49.15 1958.73 50.28 1958.73 51.76V61H1955.31V44.47H1958.73V46.36C1959.29 45.68 1960 45.15 1960.86 44.77C1961.74 44.39 1962.67 44.2 1963.65 44.2ZM1978.78 47.26V56.41C1978.78 57.03 1978.92 57.48 1979.2 57.76C1979.5 58.02 1980 58.15 1980.7 58.15H1982.8V61H1980.1C1978.56 61 1977.38 60.64 1976.56 59.92C1975.74 59.2 1975.33 58.03 1975.33 56.41V47.26H1973.38V44.47H1975.33V40.36H1978.78V44.47H1982.8V47.26H1978.78ZM1991.96 61.27C1990.66 61.27 1989.49 61.04 1988.45 60.58C1987.43 60.1 1986.62 59.46 1986.02 58.66C1985.42 57.84 1985.1 56.93 1985.06 55.93H1988.6C1988.66 56.63 1988.99 57.22 1989.59 57.7C1990.21 58.16 1990.98 58.39 1991.9 58.39C1992.86 58.39 1993.6 58.21 1994.12 57.85C1994.66 57.47 1994.93 56.99 1994.93 56.41C1994.93 55.79 1994.63 55.33 1994.03 55.03C1993.45 54.73 1992.52 54.4 1991.24 54.04C1990 53.7 1988.99 53.37 1988.21 53.05C1987.43 52.73 1986.75 52.24 1986.17 51.58C1985.61 50.92 1985.33 50.05 1985.33 48.97C1985.33 48.09 1985.59 47.29 1986.11 46.57C1986.63 45.83 1987.37 45.25 1988.33 44.83C1989.31 44.41 1990.43 44.2 1991.69 44.2C1993.57 44.2 1995.08 44.68 1996.22 45.64C1997.38 46.58 1998 47.87 1998.08 49.51H1994.66C1994.6 48.77 1994.3 48.18 1993.76 47.74C1993.22 47.3 1992.49 47.08 1991.57 47.08C1990.67 47.08 1989.98 47.25 1989.5 47.59C1989.02 47.93 1988.78 48.38 1988.78 48.94C1988.78 49.38 1988.94 49.75 1989.26 50.05C1989.58 50.35 1989.97 50.59 1990.43 50.77C1990.89 50.93 1991.57 51.14 1992.47 51.4C1993.67 51.72 1994.65 52.05 1995.41 52.39C1996.19 52.71 1996.86 53.19 1997.42 53.83C1997.98 54.47 1998.27 55.32 1998.29 56.38C1998.29 57.32 1998.03 58.16 1997.51 58.9C1996.99 59.64 1996.25 60.22 1995.29 60.64C1994.35 61.06 1993.24 61.27 1991.96 61.27ZM1732.75 97.66C1732.75 96 1733.09 94.53 1733.77 93.25C1734.47 91.97 1735.41 90.98 1736.59 90.28C1737.79 89.56 1739.11 89.2 1740.55 89.2C1741.85 89.2 1742.98 89.46 1743.94 89.98C1744.92 90.48 1745.7 91.11 1746.28 91.87V89.47H1749.73V106H1746.28V103.54C1745.7 104.32 1744.91 104.97 1743.91 105.49C1742.91 106.01 1741.77 106.27 1740.49 106.27C1739.07 106.27 1737.77 105.91 1736.59 105.19C1735.41 104.45 1734.47 103.43 1733.77 102.13C1733.09 100.81 1732.75 99.32 1732.75 97.66ZM1746.28 97.72C1746.28 96.58 1746.04 95.59 1745.56 94.75C1745.1 93.91 1744.49 93.27 1743.73 92.83C1742.97 92.39 1742.15 92.17 1741.27 92.17C1740.39 92.17 1739.57 92.39 1738.81 92.83C1738.05 93.25 1737.43 93.88 1736.95 94.72C1736.49 95.54 1736.26 96.52 1736.26 97.66C1736.26 98.8 1736.49 99.8 1736.95 100.66C1737.43 101.52 1738.05 102.18 1738.81 102.64C1739.59 103.08 1740.41 103.3 1741.27 103.3C1742.15 103.3 1742.97 103.08 1743.73 102.64C1744.49 102.2 1745.1 101.56 1745.56 100.72C1746.04 99.86 1746.28 98.86 1746.28 97.72ZM1762.56 89.2C1763.86 89.2 1765.02 89.47 1766.04 90.01C1767.08 90.55 1767.89 91.35 1768.47 92.41C1769.05 93.47 1769.34 94.75 1769.34 96.25V106H1765.95V96.76C1765.95 95.28 1765.58 94.15 1764.84 93.37C1764.1 92.57 1763.09 92.17 1761.81 92.17C1760.53 92.17 1759.51 92.57 1758.75 93.37C1758.01 94.15 1757.64 95.28 1757.64 96.76V106H1754.22V89.47H1757.64V91.36C1758.2 90.68 1758.91 90.15 1759.77 89.77C1760.65 89.39 1761.58 89.2 1762.56 89.2ZM1772.56 97.66C1772.56 96 1772.9 94.53 1773.58 93.25C1774.28 91.97 1775.22 90.98 1776.4 90.28C1777.6 89.56 1778.93 89.2 1780.39 89.2C1781.47 89.2 1782.53 89.44 1783.57 89.92C1784.63 90.38 1785.47 91 1786.09 91.78V83.8H1789.54V106H1786.09V103.51C1785.53 104.31 1784.75 104.97 1783.75 105.49C1782.77 106.01 1781.64 106.27 1780.36 106.27C1778.92 106.27 1777.6 105.91 1776.4 105.19C1775.22 104.45 1774.28 103.43 1773.58 102.13C1772.9 100.81 1772.56 99.32 1772.56 97.66ZM1786.09 97.72C1786.09 96.58 1785.85 95.59 1785.37 94.75C1784.91 93.91 1784.3 93.27 1783.54 92.83C1782.78 92.39 1781.96 92.17 1781.08 92.17C1780.2 92.17 1779.38 92.39 1778.62 92.83C1777.86 93.25 1777.24 93.88 1776.76 94.72C1776.3 95.54 1776.07 96.52 1776.07 97.66C1776.07 98.8 1776.3 99.8 1776.76 100.66C1777.24 101.52 1777.86 102.18 1778.62 102.64C1779.4 103.08 1780.22 103.3 1781.08 103.3C1781.96 103.3 1782.78 103.08 1783.54 102.64C1784.3 102.2 1784.91 101.56 1785.37 100.72C1785.85 99.86 1786.09 98.86 1786.09 97.72ZM1800.69 95.53C1800.69 93.49 1801.16 91.66 1802.1 90.04C1803.06 88.42 1804.35 87.16 1805.97 86.26C1807.61 85.34 1809.4 84.88 1811.34 84.88C1813.56 84.88 1815.53 85.43 1817.25 86.53C1818.99 87.61 1820.25 89.15 1821.03 91.15H1816.92C1816.38 90.05 1815.63 89.23 1814.67 88.69C1813.71 88.15 1812.6 87.88 1811.34 87.88C1809.96 87.88 1808.73 88.19 1807.65 88.81C1806.57 89.43 1805.72 90.32 1805.1 91.48C1804.5 92.64 1804.2 93.99 1804.2 95.53C1804.2 97.07 1804.5 98.42 1805.1 99.58C1805.72 100.74 1806.57 101.64 1807.65 102.28C1808.73 102.9 1809.96 103.21 1811.34 103.21C1812.6 103.21 1813.71 102.94 1814.67 102.4C1815.63 101.86 1816.38 101.04 1816.92 99.94H1821.03C1820.25 101.94 1818.99 103.48 1817.25 104.56C1815.53 105.64 1813.56 106.18 1811.34 106.18C1809.38 106.18 1807.59 105.73 1805.97 104.83C1804.35 103.91 1803.06 102.64 1802.1 101.02C1801.16 99.4 1800.69 97.57 1800.69 95.53ZM1832.2 106.27C1830.64 106.27 1829.23 105.92 1827.97 105.22C1826.71 104.5 1825.72 103.5 1825 102.22C1824.28 100.92 1823.92 99.42 1823.92 97.72C1823.92 96.04 1824.29 94.55 1825.03 93.25C1825.77 91.95 1826.78 90.95 1828.06 90.25C1829.34 89.55 1830.77 89.2 1832.35 89.2C1833.93 89.2 1835.36 89.55 1836.64 90.25C1837.92 90.95 1838.93 91.95 1839.67 93.25C1840.41 94.55 1840.78 96.04 1840.78 97.72C1840.78 99.4 1840.4 100.89 1839.64 102.19C1838.88 103.49 1837.84 104.5 1836.52 105.22C1835.22 105.92 1833.78 106.27 1832.2 106.27ZM1832.2 103.3C1833.08 103.3 1833.9 103.09 1834.66 102.67C1835.44 102.25 1836.07 101.62 1836.55 100.78C1837.03 99.94 1837.27 98.92 1837.27 97.72C1837.27 96.52 1837.04 95.51 1836.58 94.69C1836.12 93.85 1835.51 93.22 1834.75 92.8C1833.99 92.38 1833.17 92.17 1832.29 92.17C1831.41 92.17 1830.59 92.38 1829.83 92.8C1829.09 93.22 1828.5 93.85 1828.06 94.69C1827.62 95.51 1827.4 96.52 1827.4 97.72C1827.4 99.5 1827.85 100.88 1828.75 101.86C1829.67 102.82 1830.82 103.3 1832.2 103.3ZM1859.13 89.47V106H1855.71V104.05C1855.17 104.73 1854.46 105.27 1853.58 105.67C1852.72 106.05 1851.8 106.24 1850.82 106.24C1849.52 106.24 1848.35 105.97 1847.31 105.43C1846.29 104.89 1845.48 104.09 1844.88 103.03C1844.3 101.97 1844.01 100.69 1844.01 99.19V89.47H1847.4V98.68C1847.4 100.16 1847.77 101.3 1848.51 102.1C1849.25 102.88 1850.26 103.27 1851.54 103.27C1852.82 103.27 1853.83 102.88 1854.57 102.1C1855.33 101.3 1855.71 100.16 1855.71 98.68V89.47H1859.13ZM1867.06 91.9C1867.64 91.14 1868.43 90.5 1869.43 89.98C1870.43 89.46 1871.56 89.2 1872.82 89.2C1874.26 89.2 1875.57 89.56 1876.75 90.28C1877.95 90.98 1878.89 91.97 1879.57 93.25C1880.25 94.53 1880.59 96 1880.59 97.66C1880.59 99.32 1880.25 100.81 1879.57 102.13C1878.89 103.43 1877.95 104.45 1876.75 105.19C1875.57 105.91 1874.26 106.27 1872.82 106.27C1871.56 106.27 1870.44 106.02 1869.46 105.52C1868.48 105 1867.68 104.36 1867.06 103.6V113.86H1863.64V89.47H1867.06V91.9ZM1877.11 97.66C1877.11 96.52 1876.87 95.54 1876.39 94.72C1875.93 93.88 1875.31 93.25 1874.53 92.83C1873.77 92.39 1872.95 92.17 1872.07 92.17C1871.21 92.17 1870.39 92.39 1869.61 92.83C1868.85 93.27 1868.23 93.91 1867.75 94.75C1867.29 95.59 1867.06 96.58 1867.06 97.72C1867.06 98.86 1867.29 99.86 1867.75 100.72C1868.23 101.56 1868.85 102.2 1869.61 102.64C1870.39 103.08 1871.21 103.3 1872.07 103.3C1872.95 103.3 1873.77 103.08 1874.53 102.64C1875.31 102.18 1875.93 101.52 1876.39 100.66C1876.87 99.8 1877.11 98.8 1877.11 97.66ZM1891.14 106.27C1889.58 106.27 1888.17 105.92 1886.91 105.22C1885.65 104.5 1884.66 103.5 1883.94 102.22C1883.22 100.92 1882.86 99.42 1882.86 97.72C1882.86 96.04 1883.23 94.55 1883.97 93.25C1884.71 91.95 1885.72 90.95 1887 90.25C1888.28 89.55 1889.71 89.2 1891.29 89.2C1892.87 89.2 1894.3 89.55 1895.58 90.25C1896.86 90.95 1897.87 91.95 1898.61 93.25C1899.35 94.55 1899.72 96.04 1899.72 97.72C1899.72 99.4 1899.34 100.89 1898.58 102.19C1897.82 103.49 1896.78 104.5 1895.46 105.22C1894.16 105.92 1892.72 106.27 1891.14 106.27ZM1891.14 103.3C1892.02 103.3 1892.84 103.09 1893.6 102.67C1894.38 102.25 1895.01 101.62 1895.49 100.78C1895.97 99.94 1896.21 98.92 1896.21 97.72C1896.21 96.52 1895.98 95.51 1895.52 94.69C1895.06 93.85 1894.45 93.22 1893.69 92.8C1892.93 92.38 1892.11 92.17 1891.23 92.17C1890.35 92.17 1889.53 92.38 1888.77 92.8C1888.03 93.22 1887.44 93.85 1887 94.69C1886.56 95.51 1886.34 96.52 1886.34 97.72C1886.34 99.5 1886.79 100.88 1887.69 101.86C1888.61 102.82 1889.76 103.3 1891.14 103.3ZM1911.45 89.2C1912.75 89.2 1913.91 89.47 1914.93 90.01C1915.97 90.55 1916.78 91.35 1917.36 92.41C1917.94 93.47 1918.23 94.75 1918.23 96.25V106H1914.84V96.76C1914.84 95.28 1914.47 94.15 1913.73 93.37C1912.99 92.57 1911.98 92.17 1910.7 92.17C1909.42 92.17 1908.4 92.57 1907.64 93.37C1906.9 94.15 1906.53 95.28 1906.53 96.76V106H1903.11V89.47H1906.53V91.36C1907.09 90.68 1907.8 90.15 1908.66 89.77C1909.54 89.39 1910.47 89.2 1911.45 89.2ZM1928.59 106.27C1927.29 106.27 1926.12 106.04 1925.08 105.58C1924.06 105.1 1923.25 104.46 1922.65 103.66C1922.05 102.84 1921.73 101.93 1921.69 100.93H1925.23C1925.29 101.63 1925.62 102.22 1926.22 102.7C1926.84 103.16 1927.61 103.39 1928.53 103.39C1929.49 103.39 1930.23 103.21 1930.75 102.85C1931.29 102.47 1931.56 101.99 1931.56 101.41C1931.56 100.79 1931.26 100.33 1930.66 100.03C1930.08 99.73 1929.15 99.4 1927.87 99.04C1926.63 98.7 1925.62 98.37 1924.84 98.05C1924.06 97.73 1923.38 97.24 1922.8 96.58C1922.24 95.92 1921.96 95.05 1921.96 93.97C1921.96 93.09 1922.22 92.29 1922.74 91.57C1923.26 90.83 1924 90.25 1924.96 89.83C1925.94 89.41 1927.06 89.2 1928.32 89.2C1930.2 89.2 1931.71 89.68 1932.85 90.64C1934.01 91.58 1934.63 92.87 1934.71 94.51H1931.29C1931.23 93.77 1930.93 93.18 1930.39 92.74C1929.85 92.3 1929.12 92.08 1928.2 92.08C1927.3 92.08 1926.61 92.25 1926.13 92.59C1925.65 92.93 1925.41 93.38 1925.41 93.94C1925.41 94.38 1925.57 94.75 1925.89 95.05C1926.21 95.35 1926.6 95.59 1927.06 95.77C1927.52 95.93 1928.2 96.14 1929.1 96.4C1930.3 96.72 1931.28 97.05 1932.04 97.39C1932.82 97.71 1933.49 98.19 1934.05 98.83C1934.61 99.47 1934.9 100.32 1934.92 101.38C1934.92 102.32 1934.66 103.16 1934.14 103.9C1933.62 104.64 1932.88 105.22 1931.92 105.64C1930.98 106.06 1929.87 106.27 1928.59 106.27Z" fill="#262E3A"/>
</g>
<g filter="url(#filter5_d_1431_1524)">
<rect x="2040" y="10" width="402" height="126" rx="2" fill="#F7E6DA"/>
<path d="M2152.33 46.36C2152.33 47.42 2152.08 48.42 2151.58 49.36C2151.08 50.3 2150.28 51.07 2149.18 51.67C2148.08 52.25 2146.67 52.54 2144.95 52.54H2141.17V61H2137.75V40.15H2144.95C2146.55 40.15 2147.9 40.43 2149 40.99C2150.12 41.53 2150.95 42.27 2151.49 43.21C2152.05 44.15 2152.33 45.2 2152.33 46.36ZM2144.95 49.75C2146.25 49.75 2147.22 49.46 2147.86 48.88C2148.5 48.28 2148.82 47.44 2148.82 46.36C2148.82 44.08 2147.53 42.94 2144.95 42.94H2141.17V49.75H2144.95ZM2159.01 46.87C2159.51 46.03 2160.17 45.38 2160.99 44.92C2161.83 44.44 2162.82 44.2 2163.96 44.2V47.74H2163.09C2161.75 47.74 2160.73 48.08 2160.03 48.76C2159.35 49.44 2159.01 50.62 2159.01 52.3V61H2155.59V44.47H2159.01V46.87ZM2182.26 52.33C2182.26 52.95 2182.22 53.51 2182.14 54.01H2169.51C2169.61 55.33 2170.1 56.39 2170.98 57.19C2171.86 57.99 2172.94 58.39 2174.22 58.39C2176.06 58.39 2177.36 57.62 2178.12 56.08H2181.81C2181.31 57.6 2180.4 58.85 2179.08 59.83C2177.78 60.79 2176.16 61.27 2174.22 61.27C2172.64 61.27 2171.22 60.92 2169.96 60.22C2168.72 59.5 2167.74 58.5 2167.02 57.22C2166.32 55.92 2165.97 54.42 2165.97 52.72C2165.97 51.02 2166.31 49.53 2166.99 48.25C2167.69 46.95 2168.66 45.95 2169.9 45.25C2171.16 44.55 2172.6 44.2 2174.22 44.2C2175.78 44.2 2177.17 44.54 2178.39 45.22C2179.61 45.9 2180.56 46.86 2181.24 48.1C2181.92 49.32 2182.26 50.73 2182.26 52.33ZM2178.69 51.25C2178.67 49.99 2178.22 48.98 2177.34 48.22C2176.46 47.46 2175.37 47.08 2174.07 47.08C2172.89 47.08 2171.88 47.46 2171.04 48.22C2170.2 48.96 2169.7 49.97 2169.54 51.25H2178.69ZM2198.31 48.7V51.58H2185.98V48.7H2198.31ZM2202.03 50.53C2202.03 48.49 2202.5 46.66 2203.44 45.04C2204.4 43.42 2205.69 42.16 2207.31 41.26C2208.95 40.34 2210.74 39.88 2212.68 39.88C2214.9 39.88 2216.87 40.43 2218.59 41.53C2220.33 42.61 2221.59 44.15 2222.37 46.15H2218.26C2217.72 45.05 2216.97 44.23 2216.01 43.69C2215.05 43.15 2213.94 42.88 2212.68 42.88C2211.3 42.88 2210.07 43.19 2208.99 43.81C2207.91 44.43 2207.06 45.32 2206.44 46.48C2205.84 47.64 2205.54 48.99 2205.54 50.53C2205.54 52.07 2205.84 53.42 2206.44 54.58C2207.06 55.74 2207.91 56.64 2208.99 57.28C2210.07 57.9 2211.3 58.21 2212.68 58.21C2213.94 58.21 2215.05 57.94 2216.01 57.4C2216.97 56.86 2217.72 56.04 2218.26 54.94H2222.37C2221.59 56.94 2220.33 58.48 2218.59 59.56C2216.87 60.64 2214.9 61.18 2212.68 61.18C2210.72 61.18 2208.93 60.73 2207.31 59.83C2205.69 58.91 2204.4 57.64 2203.44 56.02C2202.5 54.4 2202.03 52.57 2202.03 50.53ZM2234.93 44.2C2236.19 44.2 2237.31 44.47 2238.29 45.01C2239.29 45.55 2240.07 46.35 2240.63 47.41C2241.21 48.47 2241.5 49.75 2241.5 51.25V61H2238.11V51.76C2238.11 50.28 2237.74 49.15 2237 48.37C2236.26 47.57 2235.25 47.17 2233.97 47.17C2232.69 47.17 2231.67 47.57 2230.91 48.37C2230.17 49.15 2229.8 50.28 2229.8 51.76V61H2226.38V38.8H2229.8V46.39C2230.38 45.69 2231.11 45.15 2231.99 44.77C2232.89 44.39 2233.87 44.2 2234.93 44.2ZM2261.01 52.33C2261.01 52.95 2260.97 53.51 2260.89 54.01H2248.26C2248.36 55.33 2248.85 56.39 2249.73 57.19C2250.61 57.99 2251.69 58.39 2252.97 58.39C2254.81 58.39 2256.11 57.62 2256.87 56.08H2260.56C2260.06 57.6 2259.15 58.85 2257.83 59.83C2256.53 60.79 2254.91 61.27 2252.97 61.27C2251.39 61.27 2249.97 60.92 2248.71 60.22C2247.47 59.5 2246.49 58.5 2245.77 57.22C2245.07 55.92 2244.72 54.42 2244.72 52.72C2244.72 51.02 2245.06 49.53 2245.74 48.25C2246.44 46.95 2247.41 45.95 2248.65 45.25C2249.91 44.55 2251.35 44.2 2252.97 44.2C2254.53 44.2 2255.92 44.54 2257.14 45.22C2258.36 45.9 2259.31 46.86 2259.99 48.1C2260.67 49.32 2261.01 50.73 2261.01 52.33ZM2257.44 51.25C2257.42 49.99 2256.97 48.98 2256.09 48.22C2255.21 47.46 2254.12 47.08 2252.82 47.08C2251.64 47.08 2250.63 47.46 2249.79 48.22C2248.95 48.96 2248.45 49.97 2248.29 51.25H2257.44ZM2263.23 52.72C2263.23 51.02 2263.57 49.53 2264.25 48.25C2264.95 46.95 2265.91 45.95 2267.13 45.25C2268.35 44.55 2269.75 44.2 2271.33 44.2C2273.33 44.2 2274.98 44.68 2276.28 45.64C2277.6 46.58 2278.49 47.93 2278.95 49.69H2275.26C2274.96 48.87 2274.48 48.23 2273.82 47.77C2273.16 47.31 2272.33 47.08 2271.33 47.08C2269.93 47.08 2268.81 47.58 2267.97 48.58C2267.15 49.56 2266.74 50.94 2266.74 52.72C2266.74 54.5 2267.15 55.89 2267.97 56.89C2268.81 57.89 2269.93 58.39 2271.33 58.39C2273.31 58.39 2274.62 57.52 2275.26 55.78H2278.95C2278.47 57.46 2277.57 58.8 2276.25 59.8C2274.93 60.78 2273.29 61.27 2271.33 61.27C2269.75 61.27 2268.35 60.92 2267.13 60.22C2265.91 59.5 2264.95 58.5 2264.25 57.22C2263.57 55.92 2263.23 54.42 2263.23 52.72ZM2288.9 52.75L2296.52 61H2291.9L2285.78 53.89V61H2282.36V38.8H2285.78V51.7L2291.78 44.47H2296.52L2288.9 52.75ZM2306.14 61.27C2304.58 61.27 2303.17 60.92 2301.91 60.22C2300.65 59.5 2299.66 58.5 2298.94 57.22C2298.22 55.92 2297.86 54.42 2297.86 52.72C2297.86 51.04 2298.23 49.55 2298.97 48.25C2299.71 46.95 2300.72 45.95 2302 45.25C2303.28 44.55 2304.71 44.2 2306.29 44.2C2307.87 44.2 2309.3 44.55 2310.58 45.25C2311.86 45.95 2312.87 46.95 2313.61 48.25C2314.35 49.55 2314.72 51.04 2314.72 52.72C2314.72 54.4 2314.34 55.89 2313.58 57.19C2312.82 58.49 2311.78 59.5 2310.46 60.22C2309.16 60.92 2307.72 61.27 2306.14 61.27ZM2306.14 58.3C2307.02 58.3 2307.84 58.09 2308.6 57.67C2309.38 57.25 2310.01 56.62 2310.49 55.78C2310.97 54.94 2311.21 53.92 2311.21 52.72C2311.21 51.52 2310.98 50.51 2310.52 49.69C2310.06 48.85 2309.45 48.22 2308.69 47.8C2307.93 47.38 2307.11 47.17 2306.23 47.17C2305.35 47.17 2304.53 47.38 2303.77 47.8C2303.03 48.22 2302.44 48.85 2302 49.69C2301.56 50.51 2301.34 51.52 2301.34 52.72C2301.34 54.5 2301.79 55.88 2302.69 56.86C2303.61 57.82 2304.76 58.3 2306.14 58.3ZM2333.07 44.47V61H2329.65V59.05C2329.11 59.73 2328.4 60.27 2327.52 60.67C2326.66 61.05 2325.74 61.24 2324.76 61.24C2323.46 61.24 2322.29 60.97 2321.25 60.43C2320.23 59.89 2319.42 59.09 2318.82 58.03C2318.24 56.97 2317.95 55.69 2317.95 54.19V44.47H2321.34V53.68C2321.34 55.16 2321.71 56.3 2322.45 57.1C2323.19 57.88 2324.2 58.27 2325.48 58.27C2326.76 58.27 2327.77 57.88 2328.51 57.1C2329.27 56.3 2329.65 55.16 2329.65 53.68V44.47H2333.07ZM2341.58 47.26V56.41C2341.58 57.03 2341.72 57.48 2342 57.76C2342.3 58.02 2342.8 58.15 2343.5 58.15H2345.6V61H2342.9C2341.36 61 2340.18 60.64 2339.36 59.92C2338.54 59.2 2338.13 58.03 2338.13 56.41V47.26H2336.18V44.47H2338.13V40.36H2341.58V44.47H2345.6V47.26H2341.58ZM2175.5 106.21C2174.1 106.21 2172.84 105.97 2171.72 105.49C2170.6 104.99 2169.72 104.29 2169.08 103.39C2168.44 102.49 2168.12 101.44 2168.12 100.24H2171.78C2171.86 101.14 2172.21 101.88 2172.83 102.46C2173.47 103.04 2174.36 103.33 2175.5 103.33C2176.68 103.33 2177.6 103.05 2178.26 102.49C2178.92 101.91 2179.25 101.17 2179.25 100.27C2179.25 99.57 2179.04 99 2178.62 98.56C2178.22 98.12 2177.71 97.78 2177.09 97.54C2176.49 97.3 2175.65 97.04 2174.57 96.76C2173.21 96.4 2172.1 96.04 2171.24 95.68C2170.4 95.3 2169.68 94.72 2169.08 93.94C2168.48 93.16 2168.18 92.12 2168.18 90.82C2168.18 89.62 2168.48 88.57 2169.08 87.67C2169.68 86.77 2170.52 86.08 2171.6 85.6C2172.68 85.12 2173.93 84.88 2175.35 84.88C2177.37 84.88 2179.02 85.39 2180.3 86.41C2181.6 87.41 2182.32 88.79 2182.46 90.55H2178.68C2178.62 89.79 2178.26 89.14 2177.6 88.6C2176.94 88.06 2176.07 87.79 2174.99 87.79C2174.01 87.79 2173.21 88.04 2172.59 88.54C2171.97 89.04 2171.66 89.76 2171.66 90.7C2171.66 91.34 2171.85 91.87 2172.23 92.29C2172.63 92.69 2173.13 93.01 2173.73 93.25C2174.33 93.49 2175.15 93.75 2176.19 94.03C2177.57 94.41 2178.69 94.79 2179.55 95.17C2180.43 95.55 2181.17 96.14 2181.77 96.94C2182.39 97.72 2182.7 98.77 2182.7 100.09C2182.7 101.15 2182.41 102.15 2181.83 103.09C2181.27 104.03 2180.44 104.79 2179.34 105.37C2178.26 105.93 2176.98 106.21 2175.5 106.21ZM2201.71 89.47V106H2198.29V104.05C2197.75 104.73 2197.04 105.27 2196.16 105.67C2195.3 106.05 2194.38 106.24 2193.4 106.24C2192.1 106.24 2190.93 105.97 2189.89 105.43C2188.87 104.89 2188.06 104.09 2187.46 103.03C2186.88 101.97 2186.59 100.69 2186.59 99.19V89.47H2189.98V98.68C2189.98 100.16 2190.35 101.3 2191.09 102.1C2191.83 102.88 2192.84 103.27 2194.12 103.27C2195.4 103.27 2196.41 102.88 2197.15 102.1C2197.91 101.3 2198.29 100.16 2198.29 98.68V89.47H2201.71ZM2226.23 89.2C2227.53 89.2 2228.69 89.47 2229.71 90.01C2230.75 90.55 2231.56 91.35 2232.14 92.41C2232.74 93.47 2233.04 94.75 2233.04 96.25V106H2229.65V96.76C2229.65 95.28 2229.28 94.15 2228.54 93.37C2227.8 92.57 2226.79 92.17 2225.51 92.17C2224.23 92.17 2223.21 92.57 2222.45 93.37C2221.71 94.15 2221.34 95.28 2221.34 96.76V106H2217.95V96.76C2217.95 95.28 2217.58 94.15 2216.84 93.37C2216.1 92.57 2215.09 92.17 2213.81 92.17C2212.53 92.17 2211.51 92.57 2210.75 93.37C2210.01 94.15 2209.64 95.28 2209.64 96.76V106H2206.22V89.47H2209.64V91.36C2210.2 90.68 2210.91 90.15 2211.77 89.77C2212.63 89.39 2213.55 89.2 2214.53 89.2C2215.85 89.2 2217.03 89.48 2218.07 90.04C2219.11 90.6 2219.91 91.41 2220.47 92.47C2220.97 91.47 2221.75 90.68 2222.81 90.1C2223.87 89.5 2225.01 89.2 2226.23 89.2ZM2257.4 89.2C2258.7 89.2 2259.86 89.47 2260.88 90.01C2261.92 90.55 2262.73 91.35 2263.31 92.41C2263.91 93.47 2264.21 94.75 2264.21 96.25V106H2260.82V96.76C2260.82 95.28 2260.45 94.15 2259.71 93.37C2258.97 92.57 2257.96 92.17 2256.68 92.17C2255.4 92.17 2254.38 92.57 2253.62 93.37C2252.88 94.15 2252.51 95.28 2252.51 96.76V106H2249.12V96.76C2249.12 95.28 2248.75 94.15 2248.01 93.37C2247.27 92.57 2246.26 92.17 2244.98 92.17C2243.7 92.17 2242.68 92.57 2241.92 93.37C2241.18 94.15 2240.81 95.28 2240.81 96.76V106H2237.39V89.47H2240.81V91.36C2241.37 90.68 2242.08 90.15 2242.94 89.77C2243.8 89.39 2244.72 89.2 2245.7 89.2C2247.02 89.2 2248.2 89.48 2249.24 90.04C2250.28 90.6 2251.08 91.41 2251.64 92.47C2252.14 91.47 2252.92 90.68 2253.98 90.1C2255.04 89.5 2256.18 89.2 2257.4 89.2ZM2267.42 97.66C2267.42 96 2267.76 94.53 2268.44 93.25C2269.14 91.97 2270.08 90.98 2271.26 90.28C2272.46 89.56 2273.78 89.2 2275.22 89.2C2276.52 89.2 2277.65 89.46 2278.61 89.98C2279.59 90.48 2280.37 91.11 2280.95 91.87V89.47H2284.4V106H2280.95V103.54C2280.37 104.32 2279.58 104.97 2278.58 105.49C2277.58 106.01 2276.44 106.27 2275.16 106.27C2273.74 106.27 2272.44 105.91 2271.26 105.19C2270.08 104.45 2269.14 103.43 2268.44 102.13C2267.76 100.81 2267.42 99.32 2267.42 97.66ZM2280.95 97.72C2280.95 96.58 2280.71 95.59 2280.23 94.75C2279.77 93.91 2279.16 93.27 2278.4 92.83C2277.64 92.39 2276.82 92.17 2275.94 92.17C2275.06 92.17 2274.24 92.39 2273.48 92.83C2272.72 93.25 2272.1 93.88 2271.62 94.72C2271.16 95.54 2270.93 96.52 2270.93 97.66C2270.93 98.8 2271.16 99.8 2271.62 100.66C2272.1 101.52 2272.72 102.18 2273.48 102.64C2274.26 103.08 2275.08 103.3 2275.94 103.3C2276.82 103.3 2277.64 103.08 2278.4 102.64C2279.16 102.2 2279.77 101.56 2280.23 100.72C2280.71 99.86 2280.95 98.86 2280.95 97.72ZM2292.31 91.87C2292.81 91.03 2293.47 90.38 2294.29 89.92C2295.13 89.44 2296.12 89.2 2297.26 89.2V92.74H2296.39C2295.05 92.74 2294.03 93.08 2293.33 93.76C2292.65 94.44 2292.31 95.62 2292.31 97.3V106H2288.89V89.47H2292.31V91.87ZM2315.29 89.47L2305.15 113.77H2301.61L2304.97 105.73L2298.46 89.47H2302.27L2306.92 102.07L2311.75 89.47H2315.29Z" fill="#262E3A"/>
</g>
<defs>
<filter id="filter0_d_1431_1524" x="1" y="10" width="410" height="134" filterUnits="userSpaceOnUse" color-interpolation-filters="sRGB">
<feFlood flood-opacity="0" result="BackgroundImageFix"/>
<feColorMatrix in="SourceAlpha" type="matrix" values="0 0 0 0 0 0 0 0 0 0 0 0 0 0 0 0 0 0 127 0" result="hardAlpha"/>
<feOffset dy="4"/>
<feGaussianBlur stdDeviation="2"/>
<feColorMatrix type="matrix" values="0 0 0 0 0 0 0 0 0 0 0 0 0 0 0 0 0 0 0.07 0"/>
<feBlend mode="normal" in2="BackgroundImageFix" result="effect1_dropShadow_1431_1524"/>
<feBlend mode="normal" in="SourceGraphic" in2="effect1_dropShadow_1431_1524" result="shape"/>
</filter>
<filter id="filter1_d_1431_1524" x="408" y="10" width="410" height="134" filterUnits="userSpaceOnUse" color-interpolation-filters="sRGB">
<feFlood flood-opacity="0" result="BackgroundImageFix"/>
<feColorMatrix in="SourceAlpha" type="matrix" values="0 0 0 0 0 0 0 0 0 0 0 0 0 0 0 0 0 0 127 0" result="hardAlpha"/>
<feOffset dy="4"/>
<feGaussianBlur stdDeviation="2"/>
<feColorMatrix type="matrix" values="0 0 0 0 0 0 0 0 0 0 0 0 0 0 0 0 0 0 0.07 0"/>
<feBlend mode="normal" in2="BackgroundImageFix" result="effect1_dropShadow_1431_1524"/>
<feBlend mode="normal" in="SourceGraphic" in2="effect1_dropShadow_1431_1524" result="shape"/>
</filter>
<filter id="filter2_d_1431_1524" x="815" y="10" width="410" height="134" filterUnits="userSpaceOnUse" color-interpolation-filters="sRGB">
<feFlood flood-opacity="0" result="BackgroundImageFix"/>
<feColorMatrix in="SourceAlpha" type="matrix" values="0 0 0 0 0 0 0 0 0 0 0 0 0 0 0 0 0 0 127 0" result="hardAlpha"/>
<feOffset dy="4"/>
<feGaussianBlur stdDeviation="2"/>
<feColorMatrix type="matrix" values="0 0 0 0 0 0 0 0 0 0 0 0 0 0 0 0 0 0 0.07 0"/>
<feBlend mode="normal" in2="BackgroundImageFix" result="effect1_dropShadow_1431_1524"/>
<feBlend mode="normal" in="SourceGraphic" in2="effect1_dropShadow_1431_1524" result="shape"/>
</filter>
<filter id="filter3_d_1431_1524" x="1222" y="10" width="410" height="134" filterUnits="userSpaceOnUse" color-interpolation-filters="sRGB">
<feFlood flood-opacity="0" result="BackgroundImageFix"/>
<feColorMatrix in="SourceAlpha" type="matrix" values="0 0 0 0 0 0 0 0 0 0 0 0 0 0 0 0 0 0 127 0" result="hardAlpha"/>
<feOffset dy="4"/>
<feGaussianBlur stdDeviation="2"/>
<feColorMatrix type="matrix" values="0 0 0 0 0 0 0 0 0 0 0 0 0 0 0 0 0 0 0.07 0"/>
<feBlend mode="normal" in2="BackgroundImageFix" result="effect1_dropShadow_1431_1524"/>
<feBlend mode="normal" in="SourceGraphic" in2="effect1_dropShadow_1431_1524" result="shape"/>
</filter>
<filter id="filter4_d_1431_1524" x="1629" y="10" width="410" height="134" filterUnits="userSpaceOnUse" color-interpolation-filters="sRGB">
<feFlood flood-opacity="0" result="BackgroundImageFix"/>
<feColorMatrix in="SourceAlpha" type="matrix" values="0 0 0 0 0 0 0 0 0 0 0 0 0 0 0 0 0 0 127 0" result="hardAlpha"/>
<feOffset dy="4"/>
<feGaussianBlur stdDeviation="2"/>
<feColorMatrix type="matrix" values="0 0 0 0 0 0 0 0 0 0 0 0 0 0 0 0 0 0 0.07 0"/>
<feBlend mode="normal" in2="BackgroundImageFix" result="effect1_dropShadow_1431_1524"/>
<feBlend mode="normal" in="SourceGraphic" in2="effect1_dropShadow_1431_1524" result="shape"/>
</filter>
<filter id="filter5_d_1431_1524" x="2036" y="10" width="410" height="134" filterUnits="userSpaceOnUse" color-interpolation-filters="sRGB">
<feFlood flood-opacity="0" result="BackgroundImageFix"/>
<feColorMatrix in="SourceAlpha" type="matrix" values="0 0 0 0 0 0 0 0 0 0 0 0 0 0 0 0 0 0 127 0" result="hardAlpha"/>
<feOffset dy="4"/>
<feGaussianBlur stdDeviation="2"/>
<feColorMatrix type="matrix" values="0 0 0 0 0 0 0 0 0 0 0 0 0 0 0 0 0 0 0.07 0"/>
<feBlend mode="normal" in2="BackgroundImageFix" result="effect1_dropShadow_1431_1524"/>
<feBlend mode="normal" in="SourceGraphic" in2="effect1_dropShadow_1431_1524" result="shape"/>
</filter>
</defs>
</svg>
